<svg width="4" height="5" viewBox="0 0 4 5" fill="none" xmlns="http://www.w3.org/2000/svg">
<path d="M3.88559 2.70562L0.418457 4.95559C0.378445 4.98154 0.331621 4.99673 0.283056 4.99953C0.23449 5.00233 0.186034 4.99262 0.142934 4.97145C0.099834 4.95028 0.0637324 4.91847 0.0385382 4.87945C0.0133438 4.84043 1.69277e-05 4.7957 4.76837e-07 4.75009V0.250162C-3.19481e-05 0.204532 0.0132594 0.159764 0.0384343 0.120709C0.0636091 0.0816548 0.0997071 0.0498038 0.142816 0.0286081C0.185925 0.00741231 0.2344 -0.00231976 0.282989 0.00046661C0.331578 0.00325298 0.378426 0.0184515 0.418457 0.044415L3.88559 2.29438C3.92091 2.31749 3.94976 2.34825 3.96968 2.38405C3.9896 2.41985 4 2.45962 4 2.5C4 2.54038 3.9896 2.58015 3.96968 2.61595C3.94976 2.65175 3.92091 2.68251 3.88559 2.70562Z" fill="#209898"/>
</svg>
