<svg width="20" height="20" viewBox="0 0 20 20" fill="none" xmlns="http://www.w3.org/2000/svg">
<path d="M10.0018 7.7998C9.71274 7.7998 9.42653 7.85674 9.15949 7.96735C8.89246 8.07796 8.64982 8.24008 8.44544 8.44446C8.24106 8.64884 8.07893 8.89148 7.96832 9.15852C7.85771 9.42556 7.80078 9.71177 7.80078 10.0008C7.80078 10.2898 7.85771 10.5761 7.96832 10.8431C8.07893 11.1101 8.24106 11.3528 8.44544 11.5571C8.64982 11.7615 8.89246 11.9237 9.15949 12.0343C9.42653 12.1449 9.71274 12.2018 10.0018 12.2018C10.5855 12.2017 11.1453 11.9697 11.558 11.5568C11.9707 11.1439 12.2024 10.584 12.2023 10.0003C12.2021 9.41656 11.9701 8.85678 11.5573 8.44411C11.1444 8.03144 10.5845 7.79967 10.0008 7.7998H10.0018ZM3.00178 7.7998C2.71274 7.7998 2.42653 7.85674 2.1595 7.96735C1.89246 8.07796 1.64982 8.24008 1.44544 8.44446C1.24106 8.64884 1.07893 8.89148 0.968322 9.15852C0.857712 9.42556 0.800781 9.71177 0.800781 10.0008C0.800781 10.2898 0.857712 10.5761 0.968322 10.8431C1.07893 11.1101 1.24106 11.3528 1.44544 11.5571C1.64982 11.7615 1.89246 11.9237 2.1595 12.0343C2.42653 12.1449 2.71274 12.2018 3.00178 12.2018C3.58552 12.2017 4.1453 11.9697 4.55798 11.5568C4.97065 11.1439 5.20241 10.584 5.20228 10.0003C5.20215 9.41656 4.97013 8.85678 4.55727 8.44411C4.14441 8.03144 3.58452 7.79967 3.00078 7.7998H3.00178ZM17.0018 7.7998C16.7127 7.7998 16.4265 7.85674 16.1595 7.96735C15.8925 8.07796 15.6498 8.24008 15.4454 8.44446C15.2411 8.64884 15.0789 8.89148 14.9683 9.15852C14.8577 9.42556 14.8008 9.71177 14.8008 10.0008C14.8008 10.2898 14.8577 10.5761 14.9683 10.8431C15.0789 11.1101 15.2411 11.3528 15.4454 11.5571C15.6498 11.7615 15.8925 11.9237 16.1595 12.0343C16.4265 12.1449 16.7127 12.2018 17.0018 12.2018C17.5855 12.2017 18.1453 11.9697 18.558 11.5568C18.9707 11.1439 19.2024 10.584 19.2023 10.0003C19.2021 9.41656 18.9701 8.85678 18.5573 8.44411C18.1444 8.03144 17.5845 7.79967 17.0008 7.7998H17.0018Z" fill="#E97036"/>
</svg>
