<svg width="33" height="33" viewBox="0 0 33 33" fill="none" xmlns="http://www.w3.org/2000/svg">
<path d="M31.9688 27.8454H17.5312C16.962 27.8454 16.5 27.3834 16.5 26.8142C16.5 26.2449 16.5 6.75841 16.5 6.18916C16.5 5.61991 16.962 5.15791 17.5312 5.15791H31.9688C32.538 5.15791 33 5.61991 33 6.18916V26.8142C33 27.3834 32.538 27.8454 31.9688 27.8454Z" fill="#ECEFF1"/>
<path d="M21.6562 11.3454H17.5312C16.962 11.3454 16.5 10.8834 16.5 10.3142C16.5 9.74491 16.962 9.28291 17.5312 9.28291H21.6562C22.2255 9.28291 22.6875 9.74491 22.6875 10.3142C22.6875 10.8834 22.2255 11.3454 21.6562 11.3454Z" fill="#388E3C"/>
<path d="M21.6562 15.4704H17.5312C16.962 15.4704 16.5 15.0084 16.5 14.4392C16.5 13.8699 16.962 13.4079 17.5312 13.4079H21.6562C22.2255 13.4079 22.6875 13.8699 22.6875 14.4392C22.6875 15.0084 22.2255 15.4704 21.6562 15.4704Z" fill="#388E3C"/>
<path d="M21.6562 19.5954H17.5312C16.962 19.5954 16.5 19.1334 16.5 18.5641C16.5 17.9949 16.962 17.5329 17.5312 17.5329H21.6562C22.2255 17.5329 22.6875 17.9949 22.6875 18.5641C22.6875 19.1334 22.2255 19.5954 21.6562 19.5954Z" fill="#388E3C"/>
<path d="M21.6562 23.7204H17.5312C16.962 23.7204 16.5 23.2584 16.5 22.6891C16.5 22.1199 16.962 21.6579 17.5312 21.6579H21.6562C22.2255 21.6579 22.6875 22.1199 22.6875 22.6891C22.6875 23.2584 22.2255 23.7204 21.6562 23.7204Z" fill="#388E3C"/>
<path d="M27.8438 11.3454H25.7812C25.212 11.3454 24.75 10.8834 24.75 10.3142C24.75 9.74491 25.212 9.28291 25.7812 9.28291H27.8438C28.413 9.28291 28.875 9.74491 28.875 10.3142C28.875 10.8834 28.413 11.3454 27.8438 11.3454Z" fill="#388E3C"/>
<path d="M27.8438 15.4704H25.7812C25.212 15.4704 24.75 15.0084 24.75 14.4392C24.75 13.8699 25.212 13.4079 25.7812 13.4079H27.8438C28.413 13.4079 28.875 13.8699 28.875 14.4392C28.875 15.0084 28.413 15.4704 27.8438 15.4704Z" fill="#388E3C"/>
<path d="M27.8438 19.5954H25.7812C25.212 19.5954 24.75 19.1334 24.75 18.5641C24.75 17.9949 25.212 17.5329 25.7812 17.5329H27.8438C28.413 17.5329 28.875 17.9949 28.875 18.5641C28.875 19.1334 28.413 19.5954 27.8438 19.5954Z" fill="#388E3C"/>
<path d="M27.8438 23.7204H25.7812C25.212 23.7204 24.75 23.2584 24.75 22.6891C24.75 22.1199 25.212 21.6579 25.7812 21.6579H27.8438C28.413 21.6579 28.875 22.1199 28.875 22.6891C28.875 23.2584 28.413 23.7204 27.8438 23.7204Z" fill="#388E3C"/>
<path d="M18.1892 1.26861C17.9541 1.07267 17.6385 0.988106 17.3415 1.04998L0.8415 4.14373C0.352687 4.23448 0 4.65936 0 5.15642V27.8439C0 28.3389 0.352687 28.7659 0.8415 28.8566L17.3415 31.9504C17.4034 31.9627 17.4673 31.9689 17.5312 31.9689C17.7705 31.9689 18.0036 31.8864 18.1892 31.7317C18.4264 31.5358 18.5625 31.2429 18.5625 30.9377V2.06267C18.5625 1.75536 18.4264 1.46454 18.1892 1.26861Z" fill="#2E7D32"/>
<path d="M14.1818 19.9475L10.921 16.2206L14.219 11.9801C14.5696 11.5305 14.4871 10.8828 14.0395 10.5322C13.592 10.1816 12.9443 10.2641 12.5916 10.7117L9.53708 14.6387L6.96308 11.6975C6.58565 11.2644 5.9339 11.2252 5.50902 11.6006C5.08002 11.976 5.03671 12.6277 5.41208 13.0547L8.24802 16.2969L5.3729 19.9929C5.02227 20.4425 5.10477 21.0902 5.55233 21.4408C5.74208 21.5872 5.9669 21.6573 6.18758 21.6573C6.4949 21.6573 6.79808 21.5212 7.00227 21.2593L9.63196 17.8768L12.6308 21.3026C12.835 21.5377 13.1196 21.6573 13.4063 21.6573C13.6476 21.6573 13.889 21.5728 14.0849 21.4016C14.5139 21.0262 14.5572 20.3745 14.1818 19.9475Z" fill="#FAFAFA"/>
</svg>
