<svg width="14" height="14" viewBox="0 0 14 14" fill="none" xmlns="http://www.w3.org/2000/svg">
<g clip-path="url(#clip0)">
<path d="M7 2.82721C4.32515 2.82721 1.89946 4.29064 0.109543 6.66765C-0.0365143 6.86239 -0.0365143 7.13446 0.109543 7.3292C1.89946 9.70908 4.32515 11.1725 7 11.1725C9.67485 11.1725 12.1005 9.70908 13.8905 7.33207C14.0365 7.13733 14.0365 6.86526 13.8905 6.67052C12.1005 4.29064 9.67485 2.82721 7 2.82721ZM7.19188 9.93818C5.41628 10.0499 3.94998 8.58644 4.06168 6.80798C4.15332 5.34168 5.34182 4.15318 6.80812 4.06154C8.58372 3.94984 10.05 5.41328 9.93832 7.19174C9.84382 8.65517 8.65531 9.84368 7.19188 9.93818ZM7.1031 8.58071C6.14657 8.64085 5.35614 7.85329 5.41915 6.89676C5.46783 6.10633 6.10934 5.46769 6.89977 5.41614C7.8563 5.356 8.64672 6.14356 8.58372 7.1001C8.53217 7.89339 7.89066 8.53203 7.1031 8.58071Z" fill="#909090"/>
</g>
<defs>
<clipPath id="clip0">
<rect width="14" height="14" fill="white"/>
</clipPath>
</defs>
</svg>
