<svg width="10" height="8" viewBox="0 0 10 8" fill="none" xmlns="http://www.w3.org/2000/svg">
<path d="M4.58876 7.77118L0.08883 0.836914C0.0369272 0.756889 0.00653362 0.663241 0.000940323 0.566111C-0.00465298 0.468981 0.0147676 0.372068 0.0570993 0.285868C0.099431 0.199668 0.16306 0.127465 0.241097 0.0770764C0.319135 0.0266876 0.408606 3.38554e-05 0.499824 9.53674e-07L9.49968 9.53674e-07C9.59094 -6.38962e-05 9.68047 0.0265188 9.75858 0.0768685C9.83669 0.127218 9.90039 0.199414 9.94278 0.285632C9.98518 0.37185 10.0046 0.468801 9.99907 0.565978C9.99349 0.663155 9.9631 0.756852 9.91117 0.836914L5.41124 7.77118C5.36503 7.84183 5.30351 7.89952 5.23191 7.93936C5.16031 7.9792 5.08075 8 5 8C4.91925 8 4.83969 7.9792 4.76809 7.93936C4.69649 7.89952 4.63497 7.84183 4.58876 7.77118Z" fill="#0F5151"/>
</svg>
