<svg width="10" height="8" viewBox="0 0 10 8" fill="none" xmlns="http://www.w3.org/2000/svg">
<path d="M5.41124 0.228819L9.91117 7.16309C9.96307 7.24311 9.99347 7.33676 9.99906 7.43389C10.0047 7.53102 9.98523 7.62793 9.9429 7.71413C9.90057 7.80033 9.83694 7.87254 9.7589 7.92292C9.68087 7.97331 9.59139 7.99997 9.50018 8L0.500323 8C0.409063 8.00006 0.319527 7.97348 0.241418 7.92313C0.16331 7.87278 0.0996076 7.80059 0.0572161 7.71437C0.0148246 7.62815 -0.00463952 7.5312 0.00093322 7.43402C0.00650597 7.33684 0.036903 7.24315 0.08883 7.16309L4.58876 0.228819C4.63497 0.158174 4.69649 0.100479 4.76809 0.0606415C4.83969 0.0208036 4.91925 0 5 0C5.08075 0 5.16031 0.0208036 5.23191 0.0606415C5.30351 0.100479 5.36503 0.158174 5.41124 0.228819Z" fill="#0F5151"/>
</svg>
