<svg width="33" height="33" viewBox="0 0 33 33" fill="none" xmlns="http://www.w3.org/2000/svg">
<path d="M29.0398 12.5443C29.0355 12.4851 29.0244 12.428 29.0056 12.3708C28.9972 12.3479 28.991 12.3248 28.9804 12.3011C28.947 12.228 28.9045 12.1583 28.8453 12.0991L28.8446 12.0977L16.9506 0.204226C16.8906 0.144265 16.8195 0.101729 16.7457 0.0676484C16.7254 0.0585518 16.7053 0.0530425 16.6843 0.0459958C16.6251 0.0251119 16.5644 0.012556 16.5017 0.00909666C16.4871 0.00768732 16.4732 0 16.4586 0H8.59867C6.03559 0 3.95117 2.08506 3.95117 4.64814V28.3526C3.95117 30.9157 6.03623 33 8.59854 33H24.4014C26.9637 33 29.0487 30.9157 29.0487 28.3526V12.5909C29.0487 12.5749 29.0404 12.5603 29.0398 12.5443ZM17.154 2.3791L26.6696 11.8941H20.4077C18.6132 11.8941 17.154 10.4349 17.154 8.64042V2.3791ZM24.4014 31.6055H8.59867C6.80419 31.6055 5.34501 30.1456 5.34501 28.3519V4.64814C5.34501 2.85366 6.80496 1.39384 8.59867 1.39384H15.7603V8.64055C15.7603 11.2036 17.8454 13.2879 20.4077 13.2879H27.655V28.352C27.655 30.1463 26.1958 31.6055 24.4014 31.6055Z" fill="#1565C0"/>
</svg>
