<svg width="20" height="20" viewBox="0 0 20 20" fill="none" xmlns="http://www.w3.org/2000/svg">
<path d="M13 19.668V14.668C13 13.8724 12.6839 13.1093 12.1213 12.5467C11.5587 11.9841 10.7956 11.668 10 11.668C9.20435 11.668 8.44129 11.9841 7.87868 12.5467C7.31607 13.1093 7 13.8724 7 14.668V19.668H2C1.46957 19.668 0.960859 19.4573 0.585786 19.0822C0.210714 18.7072 0 18.1985 0 17.668V6.80002C-3.32274e-06 6.45465 0.0894306 6.11516 0.259593 5.81461C0.429755 5.51407 0.674846 5.26271 0.971 5.08502L8.971 0.285019C9.28183 0.0985174 9.63751 0 10 0C10.3625 0 10.7182 0.0985174 11.029 0.285019L19.029 5.08502C19.3252 5.26271 19.5702 5.51407 19.7404 5.81461C19.9106 6.11516 20 6.45465 20 6.80002V17.668C20 18.1985 19.7893 18.7072 19.4142 19.0822C19.0391 19.4573 18.5304 19.668 18 19.668H13Z" fill="#209898"/>
</svg>
