<svg width="17" height="13" viewBox="0 0 17 13" fill="none" xmlns="http://www.w3.org/2000/svg">
<path d="M11.2055 10.5763V6.86033H5.86076C5.70435 6.86033 5.55434 6.8001 5.44374 6.69289C5.33314 6.58567 5.271 6.44026 5.271 6.28864C5.271 6.13702 5.33314 5.9916 5.44374 5.88439C5.55434 5.77718 5.70435 5.71694 5.86076 5.71694H11.2055V2.00093C11.2049 1.47042 10.9872 0.96181 10.6003 0.586686C10.2133 0.211562 9.68859 0.000567487 9.14132 0H2.06417C1.5169 0.000567487 0.992208 0.211562 0.605228 0.586686C0.218248 0.96181 0.000585422 1.47042 0 2.00093V10.5763C0.000585422 11.1069 0.218248 11.6155 0.605228 11.9906C0.992208 12.3657 1.5169 12.5767 2.06417 12.5773H9.14132C9.68859 12.5767 10.2133 12.3657 10.6003 11.9906C10.9872 11.6155 11.2049 11.1069 11.2055 10.5763Z" fill="white"/>
<path d="M14.5005 6.86028L12.5587 8.74294C12.4527 8.85103 12.3945 8.99495 12.3965 9.14403C12.3985 9.2931 12.4605 9.43554 12.5692 9.54096C12.678 9.64638 12.8249 9.70645 12.9787 9.70836C13.1325 9.71027 13.2809 9.65386 13.3924 9.55118L16.3412 6.6927C16.4518 6.5855 16.5138 6.44015 16.5138 6.28859C16.5138 6.13703 16.4518 5.99168 16.3412 5.88447L13.3924 3.026C13.2809 2.92331 13.1325 2.86691 12.9787 2.86882C12.8249 2.87073 12.678 2.9308 12.5692 3.03622C12.4605 3.14164 12.3985 3.28407 12.3965 3.43315C12.3945 3.58223 12.4527 3.72615 12.5587 3.83423L14.5005 5.71689H11.2063V6.86028H14.5005Z" fill="white"/>
</svg>
