<svg width="166" height="56" viewBox="0 0 166 56" fill="none" xmlns="http://www.w3.org/2000/svg">
<path d="M18.4069 45.2869C13.8296 45.2869 10.713 41.0991 10.713 37.2034C10.713 32.7234 10.713 32.8208 10.713 28.3408H0V34.5739C0 37.3982 -1.88661e-07 40.1252 0.194782 42.6573C0.486956 46.9425 2.43478 49.5721 4.67478 51.7147C7.88869 54.7338 13.2452 55.9999 18.6991 55.9999C24.2504 55.9999 29.6069 54.7338 32.7234 51.7147C35.0608 49.4747 36.9113 46.9425 37.2034 42.6573C37.3982 40.1252 37.3982 37.4956 37.3982 34.5739V28.3408H26.6852C26.6852 32.8208 26.6852 32.7234 26.6852 37.2034C26.7826 39.6382 25.1269 45.2869 18.4069 45.2869Z" fill="#895A40"/>
<path d="M0 0H10.713L26.7826 14.1217V0H37.4956V27.0748H26.7826L10.6156 13.7322L10.713 27.0748H0V0Z" fill="#895A40"/>
<path d="M12.3692 39.1512C11.8822 37.8851 11.8822 36.5216 11.9796 34.9633C11.9796 33.5025 11.9796 20.2573 11.9796 16.5564C11.9796 16.5564 18.6022 21.8155 14.7066 28.4381C15.7779 27.659 16.9466 27.172 18.8944 27.172C21.2318 27.172 22.9848 27.7564 24.5431 29.7042C25.4196 30.9703 25.9065 31.9442 25.9065 33.5999C25.9065 35.9372 25.1274 37.6903 23.0822 38.7616C21.5239 39.4433 20.55 39.5407 18.9918 39.0538C17.6283 38.5668 16.557 37.2033 16.557 35.3529C16.557 33.5999 17.6283 32.2364 19.1866 32.2364C20.55 32.2364 21.3292 33.1129 21.3292 34.5738C21.3292 35.4503 20.8422 35.9372 20.3552 36.5216C22.0109 36.619 23.0822 35.0607 23.0822 33.6972C22.8874 30.9703 20.8422 30.1912 18.8944 30.2886C16.7518 30.4833 15.0961 32.0416 14.9013 34.2816C14.7066 36.2294 14.9013 37.4955 15.8753 38.9564C18.1152 41.8781 21.7187 41.9755 25.2248 39.9303C21.037 46.7477 13.6353 43.4364 12.3692 39.1512Z" fill="#895A40"/>
<path d="M25.5168 0V11.3948C25.5168 11.3948 20.6472 7.59652 22.1081 1.85043C21.1342 2.33739 17.1412 4.18782 12.2716 0H25.5168Z" fill="#895A40"/>
<path d="M51.7155 22.1078C51.7155 20.5495 51.7155 19.673 52.2024 19.3809C52.6894 19.0887 53.1764 19.1861 53.1764 18.7965C53.1764 18.6017 52.9816 18.5043 52.6894 18.5043C52.2998 18.5043 51.5207 18.6017 50.5468 18.6017C49.4755 18.6017 48.7938 18.5043 48.4042 18.5043C48.112 18.5043 47.9172 18.6017 47.9172 18.7965C47.9172 19.2835 48.4042 19.0887 49.0859 19.3809C49.5729 19.5756 49.6703 19.9652 49.6703 20.8417V25.0295C49.6703 28.8278 50.839 30.7756 54.2477 30.7756C57.6564 30.7756 59.4094 28.7304 59.4094 24.64V22.4974C59.4094 20.6469 59.4094 19.673 59.799 19.3809C60.1885 19.0887 60.6755 19.1861 60.6755 18.7965C60.6755 18.6017 60.5781 18.5043 60.2859 18.5043C59.9937 18.5043 59.5068 18.6017 58.7277 18.6017C57.8511 18.6017 57.2668 18.5043 56.9746 18.5043C56.6824 18.5043 56.5851 18.6017 56.5851 18.7965C56.5851 19.2835 57.3642 19.0887 57.9485 19.3809C58.5329 19.673 58.6303 20.3548 58.6303 21.5235V24.4452C58.6303 26.2956 58.5329 27.5617 57.7538 28.4382C57.1694 29.2174 56.1955 29.6069 55.0268 29.6069C53.7607 29.6069 52.7868 29.0226 52.2998 28.0487C51.8129 27.2695 51.8129 26.1982 51.8129 25.0295V24.7374V22.1078H51.7155ZM49.4755 19.1861C50.1572 19.4782 50.352 20.0626 50.352 21.0365C50.352 21.1339 50.352 21.3287 50.352 21.8156V24.7374C50.352 27.6591 50.4494 29.2174 53.079 30.1913V30.2887C50.0598 29.6069 49.9625 27.8539 49.9625 24.3478V21.2313C49.9625 20.16 49.9625 19.5756 49.4755 19.1861ZM57.7538 18.8939C58.6303 18.8939 59.0198 19.1861 59.0198 19.7704C59.0198 19.9652 59.0198 20.2574 59.0198 20.5495H58.8251C58.8251 19.7704 58.4355 19.1861 57.7538 18.8939ZM74.1155 21.3287C74.1155 20.3548 74.2129 19.7704 74.6998 19.3809C75.0894 18.9913 75.5763 19.1861 75.5763 18.7965C75.5763 18.6017 75.479 18.5043 75.2842 18.5043C74.7972 18.5043 74.1155 18.6017 73.1416 18.6017C72.4598 18.6017 71.8755 18.5043 71.4859 18.5043C71.1937 18.5043 71.0963 18.6017 71.0963 18.7965C71.0963 19.2835 71.7781 18.9913 72.5572 19.4782C73.1416 19.8678 73.239 20.5495 73.239 21.6209V26.0035C73.239 26.5878 73.1416 26.7826 73.0442 26.7826C72.9468 26.7826 72.6546 26.5878 72.3624 26.1982L66.519 19.1861C66.032 18.6991 65.9346 18.4069 65.4477 18.4069C65.0581 18.4069 64.5711 18.5043 63.8894 18.5043C63.5972 18.5043 63.3051 18.4069 63.0129 18.4069C62.8181 18.4069 62.7207 18.5043 62.7207 18.7965C62.7207 19.3809 63.4024 18.8939 64.0842 19.5756C64.4737 19.9652 64.5711 20.6469 64.5711 21.7182V25.3217C64.5711 27.3669 64.279 28.8278 64.0842 29.12C63.6946 29.8991 62.9155 29.8991 62.9155 30.1913C62.9155 30.4835 63.0129 30.6782 63.2077 30.6782C63.4998 30.6782 64.1816 30.4835 65.1555 30.4835C66.1294 30.4835 66.7137 30.6782 66.9085 30.6782C67.2007 30.6782 67.3955 30.6782 67.3955 30.2887C67.3955 29.7043 66.4216 30.0939 65.8372 29.5095C65.2529 28.9252 65.2529 27.8539 65.2529 26.0035V22.0104C65.2529 21.5235 65.3503 21.3287 65.4477 21.3287C65.545 21.3287 65.6424 21.4261 65.8372 21.6209L72.8494 29.8991C73.239 30.3861 73.4337 30.6782 73.8233 30.6782C74.0181 30.6782 74.0181 30.4835 74.0181 29.9965L74.1155 21.3287ZM64.6685 27.8539C64.7659 28.2435 64.7659 28.5356 64.7659 28.7304C64.7659 29.4121 64.4737 29.8991 63.792 30.0939V29.9965C64.279 29.5095 64.4737 28.8278 64.6685 27.8539ZM64.0842 19.1861C64.9607 19.3809 65.4477 19.9652 66.032 20.6469L73.1416 29.0226C73.2389 29.2174 73.3363 29.3148 73.3363 29.6069C73.3363 29.7043 73.3363 29.8017 73.239 29.8017C73.1416 29.8017 73.1416 29.7043 73.0442 29.6069L65.0581 20.0626C64.8633 19.7704 64.5711 19.4782 64.0842 19.1861ZM72.6546 18.9913C73.4337 19.0887 73.7259 19.2835 73.7259 19.9652C73.7259 20.0626 73.7259 20.2574 73.7259 20.4522H73.6285C73.3363 19.7704 73.0442 19.2835 72.6546 18.9913ZM78.8876 19.0887C79.6668 19.2835 79.9589 19.8678 79.9589 20.9391V27.4643C79.9589 28.7304 79.8615 29.5095 78.985 29.8991V29.8017C79.5694 29.2174 79.6668 28.4382 79.6668 27.4643V27.2695V20.7443C79.6668 19.9652 79.472 19.4782 78.8876 19.0887ZM81.4198 21.1339C81.4198 20.3548 81.5172 19.7704 81.8094 19.3809C82.1989 18.9913 82.7833 19.1861 82.7833 18.6991C82.7833 18.5043 82.6859 18.4069 82.3937 18.4069C82.2963 18.4069 81.3224 18.5043 79.472 18.5043C78.4981 18.5043 78.0111 18.4069 77.8163 18.4069C77.5242 18.4069 77.4268 18.6017 77.4268 18.7965C77.4268 19.3809 78.3033 18.9913 78.8876 19.4782C79.3746 19.8678 79.3746 20.3548 79.3746 21.3287V28.0487C79.3746 28.9252 79.1798 29.4121 78.7902 29.6069C78.3033 29.8991 77.9137 29.8991 77.9137 30.2887C77.9137 30.4834 78.0111 30.6782 78.3033 30.6782C78.7902 30.6782 79.472 30.4835 80.4459 30.4835C81.712 30.4835 82.4911 30.6782 82.8807 30.6782C83.1729 30.6782 83.3676 30.5808 83.3676 30.2887C83.3676 29.8017 82.7833 29.8991 82.1989 29.8017C81.6146 29.6069 81.3224 29.0226 81.3224 28.0487V21.1339H81.4198ZM95.9311 20.2574C96.2233 19.673 96.4181 19.2835 96.6128 19.1861C96.905 18.9913 97.1972 18.9913 97.1972 18.6991C97.1972 18.5043 97.0998 18.4069 96.905 18.4069C96.7102 18.4069 96.2233 18.5043 95.5415 18.5043C94.665 18.5043 93.9833 18.3095 93.4963 18.3095C93.2041 18.3095 93.1068 18.4069 93.1068 18.6991C93.1068 19.0887 93.4963 18.9913 93.9833 19.0887C94.5676 19.2835 94.8598 19.673 94.8598 20.3548C94.8598 20.6469 94.7624 21.1339 94.5676 21.7182L92.1328 27.2695C92.0354 27.4643 91.9381 27.5617 91.9381 27.5617C91.9381 27.5617 91.7433 27.4643 91.6459 27.2695L89.1137 21.2313C89.0163 20.8417 88.8215 20.5495 88.8215 20.2574C88.8215 19.7704 89.0163 19.5756 89.4059 19.3809C89.7955 19.1861 89.9902 19.1861 89.9902 18.8939C89.9902 18.6991 89.8928 18.6017 89.6981 18.6017C89.5033 18.6017 88.8215 18.7965 87.5555 18.7965C86.3868 18.7965 85.5102 18.6017 85.1207 18.6017C84.9259 18.6017 84.7311 18.6991 84.7311 18.8939C84.7311 19.2835 85.0233 19.2835 85.5102 19.3809C85.9972 19.5756 86.192 19.8678 86.3868 20.4522L90.7694 30.6782C90.8668 30.873 90.9641 30.9704 91.0615 30.9704C91.2563 30.9704 91.2563 30.873 91.3537 30.7756L95.9311 20.2574ZM85.9972 19.0887C86.5815 19.2835 86.9711 19.7704 87.3607 20.4522L90.9641 29.12C91.0615 29.3148 91.0615 29.4121 91.0615 29.5095C91.0615 29.7043 90.9642 29.8991 90.8668 29.8991C90.7694 29.8991 90.7694 29.8017 90.672 29.6069L86.9711 20.7443C86.6789 19.8678 86.3868 19.2835 85.9972 19.0887ZM94.4702 19.1861C95.152 19.1861 95.4441 19.4782 95.4441 19.8678C95.4441 20.16 95.3468 20.4522 95.152 20.8417L95.0546 20.7443C95.152 20.5495 95.152 20.3548 95.152 20.16C95.152 19.673 94.8598 19.3809 94.4702 19.1861ZM102.846 20.2574C102.846 19.4782 103.235 19.2835 104.209 19.2835C105.865 19.2835 106.644 19.4782 107.034 20.2574C107.228 20.7443 107.034 21.2313 107.521 21.2313C107.715 21.2313 107.813 21.1339 107.813 20.9391C107.813 20.8417 107.813 20.3548 107.813 19.4782V19.0887C107.813 18.5043 107.715 18.5043 107.131 18.5043C106.255 18.5043 104.794 18.6017 102.651 18.6017C100.606 18.6017 99.5346 18.5043 99.3398 18.5043C99.0476 18.5043 98.8528 18.6017 98.8528 18.8939C98.8528 19.4782 99.7294 19.0887 100.314 19.673C100.801 20.0626 100.801 20.5495 100.801 21.4261V28.0487C100.801 28.8278 100.606 29.3148 100.119 29.6069C99.7294 29.8991 99.3398 29.8991 99.3398 30.1913C99.3398 30.3861 99.4372 30.5808 99.7294 30.5808C100.022 30.5808 100.995 30.3861 102.456 30.3861C103.722 30.3861 104.794 30.5808 105.67 30.5808C106.742 30.5808 107.423 30.2887 107.91 29.6069C108.3 29.0226 108.592 28.1461 108.592 27.7565C108.592 27.5617 108.495 27.3669 108.397 27.3669C108.105 27.3669 108.105 27.9513 107.326 28.5356C106.644 29.12 105.475 29.5095 104.307 29.5095C103.041 29.5095 102.943 29.12 102.943 27.9513V25.3217C102.943 24.64 103.041 24.3478 103.625 24.3478H104.307C105.281 24.3478 105.768 24.5426 106.06 25.2243C106.255 25.8087 106.06 26.1982 106.547 26.1982C106.742 26.1982 106.839 26.1008 106.839 25.9061C106.839 25.7113 106.742 24.9322 106.742 23.5687C106.742 22.8869 106.839 22.5948 106.839 22.4C106.839 22.2052 106.742 22.0104 106.644 22.0104C106.157 22.0104 106.255 22.4974 105.865 22.9843C105.573 23.4713 105.086 23.5687 104.404 23.5687H103.82C103.333 23.5687 103.041 23.3739 103.041 22.8869V20.2574H102.846ZM105.573 18.9913C105.865 18.9913 106.157 18.9913 106.157 18.9913C106.936 18.9913 107.228 19.2835 107.326 20.0626H107.228C106.936 19.4782 106.449 19.1861 105.573 18.9913ZM104.988 23.9582C105.281 23.8608 105.475 23.6661 105.67 23.4713H105.768L105.865 24.4452H105.768C105.573 24.2504 105.281 24.153 104.988 24.0556V23.9582ZM105.183 29.8017C106.352 29.6069 107.228 29.2174 107.91 28.3408L108.008 28.4382C107.715 29.4121 106.936 29.8991 105.865 29.8991C105.67 29.8991 105.475 29.8991 105.183 29.8017ZM100.411 19.0887C101.19 19.2835 101.482 19.8678 101.482 20.9391V27.4643C101.482 28.9252 101.288 29.6069 100.508 29.8017C101.093 29.2174 101.19 28.4382 101.19 27.4643V27.2695V20.7443C101.093 19.9652 100.898 19.3809 100.411 19.0887ZM114.143 23.2765V20.5495C114.143 19.5756 114.241 19.1861 115.215 19.1861C116.968 19.1861 117.942 20.2574 117.942 22.1078C117.942 23.5687 117.162 24.153 115.507 24.153C114.241 24.0556 114.143 23.9582 114.143 23.2765ZM117.844 24.4452C119.305 23.9582 120.084 23.0817 120.084 21.7182C120.084 19.673 118.721 18.5043 116.091 18.5043C114.922 18.5043 113.851 18.6017 112.975 18.6017C111.708 18.6017 111.027 18.5043 110.735 18.5043C110.442 18.5043 110.345 18.6017 110.345 18.8939C110.345 19.4782 111.124 19.0887 111.708 19.673C112.098 20.0626 112.098 20.5495 112.098 21.4261V28.0487C112.098 28.8278 111.903 29.3148 111.416 29.6069C111.027 29.8991 110.637 29.8991 110.637 30.1913C110.637 30.3861 110.735 30.5808 111.027 30.5808C111.416 30.5808 112.195 30.3861 113.364 30.3861C114.435 30.3861 115.117 30.5808 115.409 30.5808C115.702 30.5808 115.799 30.4835 115.799 30.1913C115.799 29.7043 115.312 29.8017 114.922 29.6069C114.435 29.3148 114.143 28.8278 114.143 27.8539V25.3217C114.143 24.8348 114.338 24.7374 114.825 24.7374C115.312 24.7374 115.702 24.7374 116.091 25.0295C116.383 25.2243 116.773 26.1008 117.357 27.3669C118.331 29.5095 119.11 30.3861 120.182 30.3861C121.058 30.3861 122.032 29.8991 122.032 29.5095C122.032 29.3148 121.935 29.3148 121.837 29.3148C121.74 29.3148 121.545 29.3148 121.448 29.3148C120.863 29.3148 120.571 29.0226 120.182 28.1461L118.428 24.9322C118.234 24.8348 118.136 24.5426 117.844 24.4452ZM111.708 19.0887C112.488 19.2835 112.78 19.8678 112.78 20.9391V27.4643C112.78 28.9252 112.585 29.6069 111.806 29.8017C112.39 29.2174 112.488 28.4382 112.488 27.4643V27.2695V20.7443C112.39 19.9652 112.195 19.3809 111.708 19.0887ZM116.773 19.1861C117.942 19.5756 118.721 20.4522 118.721 21.7182C118.721 22.5948 118.428 23.3739 117.747 23.7635V23.6661C118.136 23.1791 118.331 22.5948 118.331 21.8156C118.234 20.7443 117.747 19.8678 116.773 19.1861ZM116.286 24.7374C116.383 24.7374 116.383 24.7374 116.383 24.7374C116.675 24.7374 116.773 24.9322 116.968 25.1269L118.428 28.0487C119.013 29.3148 119.695 29.9965 120.084 30.1913V30.2887C119.305 30.0939 118.721 29.4121 118.039 28.1461L116.773 25.5165C116.675 25.2243 116.481 25.0295 116.286 24.7374ZM124.759 29.5095C124.856 29.9965 124.856 30.0939 125.343 30.0939C126.22 30.1913 126.999 30.6782 127.973 30.6782C130.31 30.6782 131.771 29.2174 131.771 26.88C131.771 25.8087 131.381 24.8348 130.797 24.2504C130.213 23.6661 129.239 23.3739 128.168 22.8869C126.609 22.3026 125.83 21.7182 125.83 20.6469C125.83 19.7704 126.609 18.9913 127.681 18.9913C128.752 18.9913 129.823 19.5756 130.408 20.5495C131.089 21.7182 130.797 22.1078 131.284 22.1078C131.479 22.1078 131.576 22.0104 131.576 21.8156C131.576 21.1339 131.382 20.3548 131.382 19.5756C131.382 19.2835 131.382 19.0887 131.382 18.9913C131.382 18.6991 131.284 18.6017 131.089 18.6017C130.895 18.6017 130.797 18.7965 130.31 18.7965C129.726 18.7965 129.044 18.2122 127.778 18.2122C125.733 18.2122 124.467 19.7704 124.467 21.5235C124.467 23.7635 125.733 24.2504 127.875 25.2243C129.726 26.0035 130.7 26.393 130.7 27.6591C130.7 29.0226 129.628 29.8991 128.362 29.8991C127.291 29.8991 126.22 29.2174 125.538 27.8539C124.954 26.7826 125.051 26.2956 124.662 26.2956C124.369 26.2956 124.272 26.393 124.272 26.6852C124.272 26.6852 124.272 26.7826 124.369 26.9774L124.759 29.5095ZM124.369 26.88C124.369 26.7826 124.369 26.6852 124.369 26.6852C124.369 26.5878 124.369 26.5878 124.467 26.5878C124.564 26.5878 124.564 26.6852 124.564 26.7826L125.441 29.4121V29.5095L125.343 29.6069C125.051 29.6069 124.954 29.5095 124.954 29.2174L124.369 26.88ZM128.947 18.8939C130.213 19.0887 130.7 19.5756 130.797 20.7443H130.7C130.31 19.8678 129.726 19.3809 128.947 18.8939ZM125.246 19.673C125.051 20.16 124.856 20.6469 124.856 21.1339C124.856 23.2765 126.22 23.6661 128.752 24.8348C130.31 25.5165 131.089 26.1982 131.089 27.4643C131.089 27.7565 130.992 28.0487 130.992 28.3408H130.895C130.895 28.0487 130.992 27.8539 130.992 27.7565C130.992 26.1982 129.628 25.6139 127.583 24.7374C125.635 23.9582 124.662 23.1791 124.662 21.5235C124.662 20.8417 124.856 20.3548 125.246 19.673ZM135.569 19.0887C136.348 19.2835 136.641 19.8678 136.641 20.9391V27.4643C136.641 28.7304 136.543 29.5095 135.667 29.8991V29.8017C136.251 29.2174 136.348 28.4382 136.348 27.4643V27.2695V20.7443C136.348 19.9652 136.154 19.4782 135.569 19.0887ZM138.004 21.1339C138.004 20.3548 138.101 19.7704 138.394 19.3809C138.783 18.9913 139.368 19.1861 139.368 18.6991C139.368 18.5043 139.27 18.4069 138.978 18.4069C138.881 18.4069 137.907 18.5043 136.056 18.5043C135.082 18.5043 134.595 18.4069 134.401 18.4069C134.108 18.4069 134.011 18.6017 134.011 18.7965C134.011 19.3809 134.888 18.9913 135.472 19.4782C135.959 19.8678 135.959 20.3548 135.959 21.3287V28.0487C135.959 28.9252 135.764 29.4121 135.375 29.6069C134.888 29.8991 134.498 29.8991 134.498 30.2887C134.498 30.4834 134.595 30.6782 134.888 30.6782C135.375 30.6782 136.056 30.4835 137.03 30.4835C138.296 30.4835 139.075 30.6782 139.465 30.6782C139.757 30.6782 139.952 30.5808 139.952 30.2887C139.952 29.8017 139.368 29.8991 138.783 29.8017C138.199 29.6069 137.907 29.0226 137.907 28.0487V21.1339H138.004ZM145.114 18.6017C143.75 18.6017 142.776 18.5043 142.289 18.5043C141.9 18.5043 141.9 18.6991 141.802 19.1861C141.705 20.5495 141.51 21.3287 141.51 21.4261C141.51 21.7182 141.608 21.8156 141.802 21.8156C142.289 21.8156 142.095 21.3287 142.581 20.3548C142.971 19.5756 143.75 19.4782 145.114 19.4782C146.088 19.4782 146.282 19.5756 146.282 20.2574V28.0487C146.282 28.9252 145.99 29.5095 145.308 29.7043C144.821 29.8991 144.335 29.8017 144.335 30.2887C144.335 30.4834 144.529 30.6782 144.821 30.6782C145.406 30.6782 146.38 30.4835 147.548 30.4835C148.717 30.4835 149.594 30.6782 149.983 30.6782C150.275 30.6782 150.373 30.5808 150.373 30.2887C150.373 29.8017 149.788 29.9965 149.301 29.8017C148.62 29.5095 148.425 28.9252 148.425 28.0487V20.4522C148.425 19.673 148.62 19.673 149.691 19.673H149.983C151.347 19.673 151.931 19.8678 152.223 20.5495C152.515 21.1339 152.418 21.4261 152.808 21.4261C153.002 21.4261 153.002 21.3287 153.002 21.0365V20.8417L152.905 19.0887C152.905 18.6017 152.71 18.6017 152.223 18.6017C151.736 18.6017 150.665 18.6991 149.204 18.6991H145.114V18.6017ZM142.095 20.4522V20.3548C142.095 19.4782 142.484 19.0887 143.361 19.0887C143.458 19.0887 143.555 19.0887 143.75 19.0887V19.1861C142.874 19.4782 142.387 19.7704 142.095 20.4522ZM146.282 19.1861C146.867 19.3809 146.964 19.8678 146.964 20.9391V27.7565C146.964 28.9252 146.769 29.5095 146.088 29.7043V29.6069C146.38 29.5095 146.575 28.9252 146.575 27.9513V20.16V19.8678C146.575 19.673 146.477 19.4782 146.282 19.1861ZM150.568 19.1861C150.957 19.1861 151.152 19.1861 151.249 19.1861C152.028 19.1861 152.321 19.4782 152.321 20.2574C151.834 19.5756 151.444 19.2835 150.568 19.2835V19.1861ZM163.715 20.2574C164.008 19.673 164.397 19.2835 164.689 19.1861C164.981 19.0887 165.176 19.0887 165.176 18.7965C165.176 18.6017 165.079 18.5043 164.884 18.5043C164.397 18.5043 164.008 18.6017 163.715 18.6017C163.715 18.6017 163.521 18.6017 163.326 18.6017C162.352 18.6017 161.67 18.5043 161.573 18.5043C161.281 18.5043 161.183 18.6017 161.183 18.7965C161.183 19.1861 161.573 19.0887 162.06 19.1861C162.547 19.2835 162.839 19.5756 162.839 20.0626C162.839 20.2574 162.644 20.5495 162.547 20.9391L160.891 23.9582C160.794 24.153 160.696 24.153 160.696 24.153C160.599 24.153 160.599 24.0556 160.501 23.9582L158.554 20.3548C158.359 20.0626 158.359 19.7704 158.359 19.673C158.359 18.9913 159.333 19.1861 159.333 18.6991C159.333 18.5043 159.235 18.4069 158.943 18.4069C158.748 18.4069 158.164 18.5043 156.995 18.5043C155.729 18.5043 154.95 18.4069 154.853 18.4069C154.561 18.4069 154.366 18.5043 154.366 18.6991C154.366 19.0887 154.853 18.9913 155.242 19.1861C155.535 19.3809 156.021 19.7704 156.314 20.4522L158.748 25.0295C158.846 25.2243 158.943 25.4191 158.943 25.9061V27.0748V27.8539C158.943 28.8278 158.846 29.3148 158.261 29.6069C157.677 29.8991 156.995 29.8017 156.995 30.1913C156.995 30.3861 157.19 30.5808 157.482 30.5808C158.067 30.5808 159.041 30.3861 160.209 30.3861C161.378 30.3861 162.157 30.5808 162.547 30.5808C162.839 30.5808 162.936 30.4835 162.936 30.1913C162.936 29.6069 161.962 29.8991 161.475 29.5095C160.988 29.12 160.891 28.633 160.891 27.5617V27.0748V25.6139C160.891 25.3217 160.891 25.1269 161.086 24.8348L163.715 20.2574ZM155.827 19.1861C156.411 19.3809 156.801 19.673 156.995 20.16L159.041 24.153C159.333 24.7374 159.82 25.2243 159.82 27.1721V27.5617C159.82 28.8278 159.82 29.5095 158.846 29.8017V29.7043C159.333 29.3148 159.43 28.7304 159.43 27.8539V27.0748C159.43 26.1982 159.43 25.5165 158.943 24.7374L156.508 20.0626C156.411 19.8678 156.216 19.4782 155.827 19.1861ZM162.644 18.9913C163.228 18.9913 163.618 19.2835 163.618 19.673C163.618 19.9652 163.521 20.2574 163.228 20.6469H163.131C163.228 20.3548 163.326 20.16 163.326 19.9652C163.228 19.5756 163.034 19.2835 162.644 18.9913Z" fill="#58574B"/>
<path d="M59.4093 3.11652C59.4093 2.14261 59.5066 1.55826 59.9936 1.16869C60.3832 0.779129 60.8701 0.973912 60.8701 0.584348C60.8701 0.389565 60.7727 0.292174 60.4806 0.292174C59.9936 0.292174 59.3119 0.389565 58.338 0.389565C57.6562 0.389565 57.0719 0.292174 56.6823 0.292174C56.3901 0.292174 56.2927 0.389565 56.2927 0.584348C56.2927 1.0713 56.9745 0.77913 57.7536 1.26609C58.338 1.65565 58.4353 2.33739 58.4353 3.40869V7.7913C58.4353 8.37564 58.338 8.57043 58.2406 8.57043C58.1432 8.57043 57.851 8.37564 57.5588 7.98608L51.7153 0.973912C51.2284 0.486956 51.131 0.194782 50.644 0.194782C50.2545 0.194782 49.7675 0.292174 49.0858 0.292174C48.7936 0.292174 48.5014 0.194782 48.2093 0.194782C48.0145 0.194782 47.8197 0.292174 47.8197 0.584348C47.8197 1.16869 48.5014 0.681739 49.1832 1.36348C49.5727 1.75304 49.6701 2.43478 49.6701 3.50608V7.10956C49.6701 9.15477 49.2806 10.6156 49.1832 10.9078C48.7936 11.6869 48.0145 11.6869 48.0145 11.9791C48.0145 12.2713 48.1119 12.4661 48.3067 12.4661C48.5988 12.4661 49.2806 12.2713 50.2545 12.2713C51.2284 12.2713 51.8127 12.4661 52.0075 12.4661C52.2997 12.4661 52.4945 12.4661 52.4945 12.0765C52.4945 11.4922 51.5206 11.8817 50.9362 11.2974C50.3519 10.713 50.3519 9.64173 50.3519 7.7913V3.79826C50.3519 3.3113 50.4493 3.11652 50.5467 3.11652C50.644 3.11652 50.7414 3.21391 50.9362 3.40869L57.9484 11.6869C58.3379 12.1739 58.5327 12.4661 58.9223 12.4661C59.1171 12.4661 59.1171 12.2713 59.1171 11.7843L59.4093 3.11652ZM49.7675 9.64173C49.8649 10.0313 49.8649 10.3235 49.8649 10.5182C49.8649 11.2 49.5727 11.6869 48.891 11.8817V11.7843C49.4754 11.2974 49.6701 10.6156 49.7675 9.64173ZM49.2806 0.973912C50.1571 1.16869 50.644 1.75304 51.2284 2.43478L58.338 10.8104C58.4353 11.0052 58.5327 11.1026 58.5327 11.3948C58.5327 11.4922 58.5327 11.5896 58.4353 11.5896C58.3379 11.5896 58.338 11.4922 58.2406 11.3948L50.2545 1.85043C50.0597 1.55826 49.6701 1.26609 49.2806 0.973912ZM57.851 0.77913C58.6301 0.876521 58.9223 1.0713 58.9223 1.75304C58.9223 1.85043 58.9223 2.04522 58.9223 2.24H58.8249C58.5327 1.46087 58.2406 1.0713 57.851 0.77913ZM67.9797 0.292174C67.8823 0.0973914 67.7849 0 67.6875 0C67.4927 0 67.4927 0.097391 67.3953 0.194782L63.1101 9.83651C62.7206 10.6156 62.5258 11.1026 62.0388 11.3948C61.7466 11.5896 61.3571 11.5896 61.3571 11.9791C61.3571 12.1739 61.4545 12.3687 61.7466 12.3687C61.9414 12.3687 62.4284 12.1739 63.2075 12.1739C64.2788 12.1739 65.0579 12.3687 65.4475 12.3687C65.7397 12.3687 65.8371 12.2713 65.8371 11.9791C65.8371 11.6869 65.5449 11.6869 65.1553 11.5896C64.3762 11.3948 63.9866 11.1026 63.9866 10.6156C63.9866 10.4209 64.084 10.2261 64.084 10.0313L64.571 8.76521C64.8632 7.98608 65.1553 7.98608 65.9345 7.98608H68.1745H68.2719C69.051 7.98608 69.2458 7.98608 69.5379 8.76521L70.0249 9.9339C70.1223 10.2261 70.2197 10.4209 70.2197 10.713C70.2197 11.7843 68.9536 11.5896 68.9536 12.0765C68.9536 12.2713 69.051 12.4661 69.2458 12.4661C69.3432 12.4661 70.1223 12.2713 71.5832 12.2713C72.5571 12.2713 73.3362 12.4661 73.8232 12.4661C74.0179 12.4661 74.1153 12.3687 74.1153 12.1739C74.1153 11.7843 73.9205 11.8817 73.531 11.6869C72.9466 11.4922 72.7518 11.1026 72.4597 10.6156L67.9797 0.292174ZM67.2979 3.60347L68.4666 6.52521C68.564 6.81738 68.6614 7.01217 68.6614 7.01217C68.6614 7.10956 68.4666 7.20695 68.0771 7.20695H66.1292C65.5449 7.20695 65.3501 7.20695 65.3501 6.91477C65.3501 6.81738 65.3501 6.71999 65.4475 6.52521L66.7136 3.50608C66.811 3.3113 66.9084 3.21391 67.0058 3.21391C67.1032 3.21391 67.2005 3.3113 67.2979 3.60347ZM63.3049 10.0313L63.4023 10.2261C63.4023 11.2974 63.0127 11.7843 62.1362 11.8817L62.0388 11.7843C62.7206 11.3948 63.0127 10.8104 63.3049 10.0313ZM70.0249 11.4922C70.3171 11.2974 70.4145 11.0052 70.4145 10.6156C70.4145 10.3235 70.3171 10.0313 70.2197 9.64173L67.4927 3.11652C67.3953 2.92174 67.2979 2.82434 67.2979 2.62956C67.2979 2.43478 67.3953 2.43478 67.4927 2.43478C67.5901 2.43478 67.6875 2.53217 67.6875 2.62956L70.5119 9.34956C70.6092 9.64173 70.7066 10.1287 70.7066 10.4209C70.7066 11.0052 70.5119 11.2974 70.0249 11.4922ZM82.8805 0.973912C82.9779 0.77913 83.0753 0.584347 83.0753 0.486956C83.0753 0.389565 82.8805 0.292174 82.5884 0.292174C82.3936 0.292174 81.0301 0.389565 78.4005 0.389565C76.5501 0.389565 75.6736 0.292174 75.4788 0.292174C75.0892 0.292174 75.0892 0.486957 75.0892 0.876521V0.973912C75.0892 1.85043 74.8945 2.43478 74.8945 2.82435C74.8945 3.01913 74.9918 3.11652 75.1866 3.11652C75.6736 3.11652 75.3814 2.62956 75.9658 1.94782C76.2579 1.46087 77.1344 1.16869 78.4979 1.16869C79.5692 1.16869 80.0562 1.26609 80.0562 1.55826C80.0562 1.75304 79.8614 2.43478 79.2771 3.60347L74.9918 11.3948C74.7971 11.7843 74.6023 11.9791 74.6023 12.1739C74.6023 12.3687 74.6997 12.3687 74.8945 12.3687C75.1866 12.3687 75.771 12.2713 76.9397 12.2713C79.1797 12.2713 80.5431 12.3687 81.0301 12.3687C82.7831 12.3687 83.5623 11.0052 83.5623 9.83651C83.5623 9.54434 83.4649 9.44695 83.3675 9.44695C83.0753 9.44695 82.8805 10.1287 82.1988 10.6156C81.4197 11.2 80.4458 11.3948 79.0823 11.3948H78.4979C77.8162 11.3948 77.524 11.3948 77.524 11.1026C77.524 11.0052 77.524 10.9078 77.6214 10.713L82.8805 0.973912ZM80.5431 1.55826C80.6405 1.46087 80.6405 1.36348 80.7379 1.36348H80.8353C81.0301 1.36348 81.0301 1.46087 81.0301 1.46087C81.0301 1.46087 81.0301 1.55826 80.9327 1.65565L80.6405 2.24C80.4458 2.53217 80.251 3.11652 79.8614 3.79826L75.771 11.5896C75.6736 11.6869 75.5762 11.7843 75.4788 11.7843C75.3814 11.7843 75.284 11.6869 75.284 11.6869C75.284 11.6869 75.284 11.5896 75.3814 11.3948L79.4718 3.70087C79.9588 2.72695 80.251 2.14261 80.251 2.14261L80.5431 1.55826ZM75.4788 2.04522C75.5762 1.0713 75.8684 0.876521 76.9397 0.876521H77.0371V0.973912C76.3553 1.0713 75.8684 1.46087 75.4788 2.04522ZM80.0562 11.6869C81.2249 11.4922 82.1014 11.2 82.9779 10.3235L83.0753 10.4209C82.6858 11.3948 81.9066 11.8817 80.8353 11.8817C80.5431 11.7843 80.3484 11.7843 80.0562 11.6869ZM90.6718 0.292174C90.5744 0.0973914 90.477 0 90.3797 0C90.1849 0 90.1849 0.097391 90.0875 0.194782L85.8023 9.83651C85.4127 10.6156 85.2179 11.1026 84.731 11.3948C84.3414 11.5896 84.0492 11.5896 84.0492 11.9791C84.0492 12.1739 84.1466 12.3687 84.4388 12.3687C84.6336 12.3687 85.1205 12.1739 85.8997 12.1739C86.971 12.1739 87.7501 12.3687 88.1397 12.3687C88.4318 12.3687 88.5292 12.2713 88.5292 11.9791C88.5292 11.6869 88.2371 11.6869 87.8475 11.5896C87.0684 11.3948 86.6788 11.1026 86.6788 10.6156C86.6788 10.4209 86.7762 10.2261 86.7762 10.0313L87.2631 8.76521C87.5553 7.98608 87.8475 7.98608 88.6266 7.98608H90.8666H90.964C91.7431 7.98608 91.9379 7.98608 92.2301 8.76521L92.717 9.9339C92.8144 10.2261 92.9118 10.4209 92.9118 10.713C92.9118 11.7843 91.6457 11.5896 91.6457 12.0765C91.6457 12.2713 91.7431 12.4661 91.9379 12.4661C92.0353 12.4661 92.8144 12.2713 94.2753 12.2713C95.2492 12.2713 96.0283 12.4661 96.5153 12.4661C96.7101 12.4661 96.8075 12.3687 96.8075 12.1739C96.8075 11.7843 96.6127 11.8817 96.2231 11.6869C95.6388 11.4922 95.444 11.1026 95.1518 10.6156L90.6718 0.292174ZM89.8927 3.60347L91.0614 6.52521C91.1588 6.81738 91.2562 7.01217 91.2562 7.01217C91.2562 7.10956 91.0614 7.20695 90.6718 7.20695H88.724C88.1397 7.20695 87.9449 7.20695 87.9449 6.91477C87.9449 6.81738 87.9449 6.71999 88.0423 6.52521L89.3084 3.50608C89.4057 3.3113 89.5031 3.21391 89.6005 3.21391C89.6979 3.21391 89.7953 3.3113 89.8927 3.60347ZM85.9971 10.0313L86.0944 10.2261C86.0944 11.2974 85.7049 11.7843 84.8284 11.8817L84.731 11.7843C85.4127 11.3948 85.6075 10.8104 85.9971 10.0313ZM92.717 11.4922C93.0092 11.2974 93.1066 11.0052 93.1066 10.6156C93.1066 10.3235 93.0092 10.0313 92.9118 9.64173L90.1849 3.11652C90.0875 2.92174 89.9901 2.82434 89.9901 2.62956C89.9901 2.43478 90.0875 2.43478 90.1849 2.43478C90.2823 2.43478 90.3797 2.53217 90.3797 2.62956L93.204 9.34956C93.3014 9.64173 93.3988 10.1287 93.3988 10.4209C93.3988 11.0052 93.1066 11.2974 92.717 11.4922ZM100.606 5.06434V2.33739C100.606 1.36348 100.703 0.973912 101.677 0.973912C103.43 0.973912 104.501 2.04522 104.501 3.89565C104.501 5.35652 103.722 5.94086 102.067 5.94086C100.703 5.84347 100.606 5.74608 100.606 5.06434ZM104.307 6.23304C105.767 5.74608 106.547 4.86956 106.547 3.50608C106.547 1.46087 105.183 0.292174 102.554 0.292174C101.385 0.292174 100.314 0.389565 99.437 0.389565C98.1709 0.389565 97.3918 0.292174 97.197 0.292174C96.9049 0.292174 96.8075 0.389565 96.8075 0.681738C96.8075 1.26609 97.5866 0.876521 98.171 1.46087C98.5605 1.85043 98.5605 2.33739 98.5605 3.21391V9.9339C98.5605 10.713 98.3657 11.2 97.8788 11.4922C97.4892 11.7843 97.0997 11.7843 97.0997 12.0765C97.0997 12.2713 97.197 12.4661 97.4892 12.4661C97.8788 12.4661 98.6579 12.2713 99.8266 12.2713C100.898 12.2713 101.58 12.4661 101.872 12.4661C102.164 12.4661 102.261 12.3687 102.261 12.0765C102.261 11.5896 101.774 11.6869 101.385 11.4922C100.898 11.2 100.606 10.713 100.606 9.73912V7.20695C100.606 6.71999 100.801 6.6226 101.287 6.6226C101.872 6.6226 102.164 6.6226 102.554 6.91477C102.846 7.10956 103.235 7.98608 103.82 9.25216C104.794 11.3948 105.573 12.2713 106.741 12.2713C107.618 12.2713 108.592 11.7843 108.592 11.3948C108.592 11.2 108.494 11.2 108.397 11.2C108.3 11.2 108.105 11.2 108.007 11.2C107.423 11.2 107.131 10.9078 106.741 10.0313L104.988 6.81738C104.696 6.6226 104.599 6.33043 104.307 6.23304ZM98.0736 0.876521C98.8527 1.0713 99.1449 1.65565 99.1449 2.72695V9.25216C99.1449 10.713 98.9501 11.3948 98.171 11.5896C98.7553 11.0052 98.8527 10.2261 98.8527 9.25216V9.05738V2.53217C98.8527 1.75304 98.6579 1.16869 98.0736 0.876521ZM103.235 0.973912C104.404 1.36348 105.183 2.24 105.183 3.50608C105.183 4.3826 104.794 5.16173 104.209 5.5513V5.45391C104.599 4.96695 104.794 4.3826 104.794 3.60347C104.696 2.53217 104.209 1.65565 103.235 0.973912ZM102.748 6.52521C102.846 6.52521 102.846 6.52521 102.846 6.52521C103.138 6.52521 103.235 6.71999 103.43 6.91477L104.891 9.83651C105.475 11.1026 106.157 11.7843 106.547 11.9791V12.0765C105.767 11.8817 105.183 11.2 104.501 9.9339L103.138 7.30434C103.041 7.01217 102.846 6.81738 102.651 6.52521H102.748ZM112.39 4.67478V2.53217C112.39 1.46087 112.585 0.973912 113.559 0.973912C115.117 0.973912 116.286 2.04522 116.286 3.70087C116.286 5.06434 115.701 5.5513 114.338 5.5513C112.682 5.5513 112.39 5.45391 112.39 4.67478ZM116.286 5.64869C117.552 5.16173 118.234 4.48 118.234 3.21391C118.234 1.46087 116.773 0.292174 114.338 0.292174C113.169 0.292174 112.001 0.389565 110.929 0.389565C109.663 0.389565 108.981 0.292174 108.787 0.292174C108.494 0.292174 108.3 0.389565 108.3 0.681738C108.3 1.26609 109.176 0.876521 109.761 1.46087C110.247 1.85043 110.247 2.33739 110.247 3.21391V9.9339C110.247 10.713 110.053 11.2 109.566 11.4922C109.176 11.7843 108.787 11.7843 108.787 12.0765C108.787 12.2713 108.884 12.4661 109.176 12.4661C109.566 12.4661 110.345 12.3687 111.319 12.3687C111.806 12.3687 112.78 12.4661 114.338 12.4661C115.799 12.4661 116.87 12.2713 117.747 11.4922C118.526 10.8104 118.915 9.83651 118.915 8.76521C119.11 7.01217 117.941 5.74608 116.286 5.64869ZM112.39 9.73912V7.40173C112.39 6.42782 112.487 6.13565 113.656 6.13565C115.701 6.13565 116.967 7.10956 116.967 8.8626C116.967 10.3235 115.994 11.3948 114.241 11.3948C112.682 11.5896 112.39 11.1026 112.39 9.73912ZM109.955 0.876521C110.734 1.0713 111.027 1.65565 111.027 2.72695V9.25216C111.027 10.713 110.832 11.3948 110.053 11.5896C110.637 11.0052 110.734 10.2261 110.734 9.25216V9.05738V2.53217C110.637 1.75304 110.442 1.16869 109.955 0.876521ZM115.02 0.77913C116.286 1.0713 117.065 2.14261 117.065 3.3113C117.065 3.99304 116.87 4.57739 116.383 5.06434L116.286 4.96695C116.578 4.57739 116.675 4.18782 116.675 3.70087C116.675 2.33739 116.091 1.36348 115.02 0.876521V0.77913ZM115.701 6.33043C117.065 6.71999 117.844 7.59651 117.844 8.8626C117.844 10.0313 117.162 11.1026 116.091 11.5896L115.994 11.4922C116.87 10.9078 117.357 10.0313 117.357 8.95999C117.357 7.7913 116.773 6.81738 115.701 6.33043ZM126.414 0.292174C126.317 0.0973914 126.22 0 126.122 0C125.927 0 125.927 0.097391 125.83 0.194782L121.545 9.83651C121.253 10.6156 120.961 11.1026 120.474 11.3948C120.084 11.5896 119.792 11.5896 119.792 11.9791C119.792 12.1739 119.889 12.3687 120.181 12.3687C120.376 12.3687 120.863 12.1739 121.642 12.1739C122.714 12.1739 123.493 12.3687 123.882 12.3687C124.174 12.3687 124.272 12.2713 124.272 11.9791C124.272 11.6869 123.98 11.6869 123.59 11.5896C122.811 11.3948 122.421 11.1026 122.421 10.6156C122.421 10.4209 122.519 10.2261 122.519 10.0313L123.006 8.76521C123.298 7.98608 123.59 7.98608 124.369 7.98608H126.609H126.707C127.486 7.98608 127.68 7.98608 127.973 8.76521L128.46 9.9339C128.557 10.2261 128.654 10.4209 128.654 10.713C128.654 11.7843 127.388 11.5896 127.388 12.0765C127.388 12.2713 127.486 12.4661 127.68 12.4661C127.778 12.4661 128.557 12.2713 130.018 12.2713C130.992 12.2713 131.771 12.4661 132.258 12.4661C132.453 12.4661 132.55 12.3687 132.55 12.1739C132.55 11.7843 132.355 11.8817 131.966 11.6869C131.381 11.4922 131.187 11.1026 130.894 10.6156L126.414 0.292174ZM125.635 3.60347L126.804 6.52521C126.901 6.81738 126.999 7.01217 126.999 7.01217C126.999 7.10956 126.804 7.20695 126.414 7.20695H124.467C123.882 7.20695 123.687 7.20695 123.687 6.91477C123.687 6.81738 123.687 6.71999 123.785 6.52521L125.051 3.50608C125.148 3.3113 125.246 3.21391 125.343 3.21391C125.538 3.21391 125.635 3.3113 125.635 3.60347ZM121.74 10.0313L121.837 10.2261C121.837 11.2974 121.447 11.7843 120.571 11.8817L120.474 11.7843C121.155 11.3948 121.447 10.8104 121.74 10.0313ZM128.46 11.4922C128.752 11.2974 128.849 11.0052 128.849 10.6156C128.849 10.3235 128.752 10.0313 128.654 9.64173L125.927 3.11652C125.83 2.92174 125.733 2.82434 125.733 2.62956C125.733 2.43478 125.83 2.43478 125.927 2.43478C126.025 2.43478 126.122 2.53217 126.122 2.62956L128.947 9.34956C129.044 9.64173 129.141 10.1287 129.141 10.4209C129.141 11.0052 128.947 11.2974 128.46 11.4922ZM141.12 2.04522C141.413 1.46087 141.802 1.0713 142.192 0.973912C142.484 0.876521 142.679 0.876521 142.679 0.584348C142.679 0.389565 142.581 0.292174 142.289 0.292174C141.802 0.292174 141.413 0.389565 141.12 0.389565C141.12 0.389565 140.926 0.389565 140.731 0.389565C139.66 0.389565 139.075 0.292174 138.88 0.292174C138.588 0.292174 138.491 0.389565 138.491 0.584348C138.491 0.973912 138.88 0.876521 139.367 0.973912C139.854 1.0713 140.147 1.36348 140.147 1.85043C140.147 2.04522 139.952 2.33739 139.757 2.72695L138.101 5.74608C138.004 5.94086 137.907 5.94086 137.907 5.94086C137.809 5.94086 137.809 5.84347 137.712 5.74608L135.764 2.14261C135.569 1.85043 135.569 1.55826 135.569 1.46087C135.569 0.77913 136.543 0.973912 136.543 0.486956C136.543 0.292174 136.446 0.194782 136.154 0.194782C135.959 0.194782 135.374 0.292174 134.206 0.292174C132.94 0.292174 132.16 0.194782 132.063 0.194782C131.771 0.194782 131.576 0.292174 131.576 0.486956C131.576 0.876521 132.063 0.77913 132.453 0.973912C132.745 1.16869 133.232 1.55826 133.524 2.24L135.959 6.81738C136.056 7.01217 136.154 7.20695 136.154 7.69391V8.8626V9.64173C136.154 10.6156 136.056 11.1026 135.472 11.3948C134.887 11.6869 134.206 11.5896 134.206 11.9791C134.206 12.1739 134.4 12.3687 134.693 12.3687C135.277 12.3687 136.251 12.1739 137.42 12.1739C138.588 12.1739 139.367 12.3687 139.854 12.3687C140.147 12.3687 140.244 12.2713 140.244 11.9791C140.244 11.3948 139.27 11.6869 138.783 11.2974C138.296 10.9078 138.199 10.4209 138.199 9.34956V8.76521V7.30434C138.199 7.01217 138.199 6.81738 138.394 6.52521L141.12 2.04522ZM133.134 0.973912C133.719 1.16869 134.108 1.46087 134.303 1.94782L136.348 5.94086C136.64 6.52521 137.127 7.01217 137.127 8.95999V9.34956C137.127 10.6156 137.127 11.2974 136.154 11.5896V11.4922C136.64 11.1026 136.738 10.5183 136.738 9.64173V8.8626C136.738 7.98608 136.738 7.30434 136.251 6.52521L133.816 1.75304C133.816 1.65565 133.524 1.26609 133.134 0.973912ZM139.952 0.77913C140.536 0.77913 140.926 1.0713 140.926 1.46087C140.926 1.75304 140.828 2.04522 140.536 2.43478H140.439C140.536 2.14261 140.634 1.94782 140.634 1.75304C140.536 1.36348 140.341 1.0713 139.952 0.77913ZM146.867 2.04522C146.867 1.26609 147.256 1.0713 148.23 1.0713C149.886 1.0713 150.762 1.26609 151.054 2.04522C151.249 2.53217 151.054 3.01913 151.541 3.01913C151.736 3.01913 151.834 2.92174 151.834 2.62956C151.834 2.53217 151.834 2.04521 151.834 1.16869V0.77913C151.834 0.194783 151.736 0.194782 151.152 0.194782C150.275 0.194782 148.717 0.292174 146.672 0.292174C144.529 0.292174 143.555 0.194782 143.36 0.194782C143.068 0.194782 142.874 0.292174 142.874 0.584348C142.874 1.16869 143.75 0.77913 144.334 1.36348C144.821 1.75304 144.821 2.24 144.821 3.11652V9.83651C144.821 10.6156 144.627 11.1026 144.14 11.3948C143.75 11.6869 143.36 11.6869 143.36 11.9791C143.36 12.1739 143.458 12.3687 143.75 12.3687C144.042 12.3687 145.016 12.1739 146.477 12.1739C147.743 12.1739 148.814 12.3687 149.691 12.3687C150.762 12.3687 151.444 12.0765 151.931 11.3948C152.32 10.8104 152.613 9.9339 152.613 9.54434C152.613 9.34956 152.515 9.25216 152.418 9.25216C152.028 9.25216 152.028 9.83651 151.347 10.4209C150.665 11.0052 149.496 11.3948 148.327 11.3948C147.061 11.3948 146.964 11.0052 146.964 9.83651V7.20695C146.964 6.52521 147.061 6.23304 147.646 6.23304H148.327C149.301 6.23304 149.788 6.42782 150.08 7.10956C150.275 7.6939 150.08 8.08347 150.567 8.08347C150.762 8.08347 150.86 7.98608 150.86 7.7913C150.86 7.59651 150.762 6.81738 150.762 5.45391C150.762 4.77217 150.86 4.48 150.86 4.28521C150.86 4.09043 150.762 3.89565 150.665 3.89565C150.178 3.89565 150.275 4.38261 149.886 4.86956C149.594 5.35652 149.107 5.45391 148.425 5.45391H147.84C147.354 5.45391 147.061 5.25913 147.061 4.77217V2.04522H146.867ZM149.594 0.77913C149.886 0.77913 150.178 0.77913 150.178 0.77913C150.957 0.77913 151.249 1.0713 151.347 1.85043H151.249C150.957 1.26609 150.47 0.973912 149.594 0.77913ZM149.009 5.74608C149.301 5.64869 149.496 5.45391 149.691 5.25913H149.788L149.886 6.23304H149.788C149.594 6.03825 149.301 5.94086 149.009 5.84347V5.74608ZM149.204 11.5896C150.373 11.3948 151.249 11.0052 151.931 10.1287L152.028 10.2261C151.736 11.2 150.957 11.6869 149.886 11.6869C149.691 11.6869 149.496 11.6869 149.204 11.5896ZM144.334 0.876521C145.114 1.0713 145.406 1.65565 145.406 2.72695V9.25216C145.406 10.713 145.211 11.3948 144.432 11.5896C145.016 11.0052 145.114 10.2261 145.114 9.25216V9.05738V2.53217C145.114 1.75304 144.919 1.16869 144.334 0.876521ZM164.007 2.04522C164.3 1.46087 164.494 1.0713 164.689 0.973912C165.079 0.77913 165.273 0.77913 165.273 0.486956C165.273 0.292174 165.176 0.194782 164.981 0.194782C164.787 0.194782 164.3 0.292174 163.52 0.292174C162.644 0.292174 161.962 0.0973916 161.475 0.0973916C161.183 0.0973916 161.086 0.194782 161.086 0.486956C161.086 0.77913 161.475 0.77913 161.962 0.876521C162.547 1.0713 162.839 1.46087 162.839 2.14261C162.839 2.53217 162.741 2.92174 162.547 3.50608L160.112 9.05738C160.014 9.25216 159.917 9.34956 159.917 9.34956C159.82 9.34956 159.722 9.25216 159.625 9.05738L157.093 3.01913C156.995 2.62956 156.8 2.33739 156.8 2.04522C156.8 1.55826 156.995 1.36348 157.385 1.16869C157.774 0.973912 157.969 0.973912 157.969 0.681738C157.969 0.486956 157.872 0.389565 157.677 0.389565C157.482 0.389565 156.8 0.584348 155.534 0.584348C154.366 0.584348 153.489 0.389565 153.1 0.389565C152.905 0.389565 152.71 0.486956 152.71 0.681738C152.71 0.973912 153.002 1.0713 153.489 1.16869C153.976 1.36348 154.171 1.65565 154.366 2.24L158.748 12.4661C158.846 12.6609 158.943 12.7582 159.04 12.7582C159.235 12.7582 159.235 12.6609 159.333 12.5635L164.007 2.04522ZM154.074 0.876521C154.658 1.0713 155.145 1.55826 155.437 2.24L159.04 10.9078C159.138 11.1026 159.138 11.2 159.138 11.2974C159.138 11.4922 159.04 11.6869 158.943 11.6869C158.846 11.6869 158.846 11.5896 158.748 11.3948L155.047 2.53217C154.755 1.65565 154.463 1.0713 154.074 0.876521ZM162.547 0.973912C163.228 0.973912 163.52 1.26609 163.52 1.65565C163.52 1.94782 163.423 2.24 163.228 2.62956L163.131 2.53217C163.228 2.33739 163.228 2.14261 163.228 1.94782C163.228 1.46087 163.033 1.16869 162.547 0.973912Z" fill="#58574B"/>
<path d="M160.306 49.2797C160.306 48.8902 160.306 48.7928 160.404 48.6954C160.501 48.598 160.793 48.598 161.183 48.598C161.864 48.598 162.546 48.6954 162.936 48.9876C163.812 49.4745 164.202 50.4484 164.202 51.5197C164.202 53.1754 163.325 54.7336 161.28 54.7336C160.501 54.7336 160.209 54.5389 160.209 53.7597V49.2797H160.306ZM158.456 48.2084V48.5006C159.235 48.598 159.332 48.598 159.332 49.4745V53.6623C159.332 54.5389 159.235 54.6363 158.358 54.7336V55.0258H160.891C162.157 55.0258 163.228 54.7336 164.007 54.1493C164.786 53.565 165.273 52.591 165.273 51.325C165.273 50.351 164.884 49.5719 164.397 49.085C163.715 48.5006 162.741 48.2084 161.378 48.2084H158.456ZM157.092 48.2084H154.56V48.5006C155.242 48.5006 155.534 48.6954 155.631 49.1823C155.631 49.4745 155.729 49.9615 155.729 50.9354V53.5649L151.346 48.3058H149.788V48.5006C150.275 48.5006 150.47 48.598 150.762 48.8902C150.957 49.1823 150.957 49.1823 150.957 49.9615V52.2989C150.957 53.2728 150.957 53.7597 150.859 54.1493C150.762 54.6363 150.567 54.831 149.885 54.831V55.1232H152.418V54.831C151.736 54.831 151.444 54.6363 151.444 54.1493C151.444 53.8571 151.346 53.3702 151.346 52.3963V49.7667L155.826 55.318H156.118V51.0328C156.118 50.0589 156.118 49.5719 156.216 49.2797C156.216 48.7928 156.508 48.6954 157.092 48.598V48.2084ZM148.619 48.2084H146.087V48.5006C146.866 48.598 147.061 48.6954 147.158 49.085C147.158 49.3771 147.256 49.8641 147.256 50.838V51.6171C147.256 53.3702 146.769 54.6363 145.308 54.6363C144.042 54.6363 143.36 53.6623 143.36 52.0067V49.5719C143.36 48.598 143.458 48.598 144.237 48.5006V48.2084H141.51V48.5006C142.386 48.598 142.386 48.598 142.386 49.5719V52.2015C142.386 53.4676 142.678 54.2467 143.36 54.7336C143.847 55.1232 144.431 55.2206 145.016 55.2206C145.698 55.2206 146.379 55.0258 146.866 54.5389C147.451 53.8571 147.645 52.9806 147.645 51.7145V50.838C147.645 49.8641 147.645 49.3771 147.743 49.085C147.84 48.6954 148.035 48.5006 148.717 48.5006V48.2084H148.619ZM139.951 49.7667C139.854 49.2797 139.854 48.598 139.854 48.2084H135.179V48.5006C135.958 48.598 136.056 48.598 136.056 49.5719V53.7597C136.056 54.6363 135.958 54.7336 135.082 54.831V55.1232H137.906V54.831C136.932 54.7336 136.835 54.7336 136.835 53.7597V51.8119H137.906C138.88 51.8119 138.88 51.9093 139.075 52.6884H139.367V50.6432H139.075C138.978 51.3249 138.88 51.4223 137.906 51.4223H136.835V48.8902C136.835 48.598 136.835 48.598 137.127 48.598H137.906C138.685 48.598 138.978 48.6954 139.075 48.9876C139.27 49.1823 139.27 49.3771 139.367 49.8641L139.951 49.7667ZM129.92 49.7667C129.823 49.1823 129.823 48.4032 129.823 47.9163H129.628C129.433 48.111 129.336 48.2084 129.044 48.2084H124.856C124.564 48.2084 124.466 48.2084 124.271 47.9163H124.077C124.077 48.5006 123.979 49.1823 123.979 49.7667H124.271C124.369 49.2797 124.466 48.9876 124.564 48.7928C124.661 48.598 124.953 48.5006 125.83 48.5006H126.511V53.6623C126.511 54.5389 126.414 54.6363 125.44 54.6363V54.9284H128.459V54.6363C127.485 54.5389 127.388 54.4415 127.388 53.6623V48.5006H128.167C128.946 48.5006 129.141 48.598 129.336 48.7928C129.433 48.9876 129.531 49.1823 129.628 49.7667H129.92ZM122.713 48.2084H120.181V48.5006C120.863 48.5006 121.155 48.6954 121.252 49.1823C121.252 49.4745 121.35 49.9615 121.35 50.9354V53.5649L116.967 48.3058H115.311V48.5006C115.798 48.5006 115.993 48.598 116.285 48.8902C116.48 49.1823 116.48 49.1823 116.48 49.9615V52.2989C116.48 53.2728 116.48 53.7597 116.383 54.1493C116.285 54.6363 116.091 54.831 115.409 54.831V55.1232H117.941V54.831C117.259 54.831 116.967 54.6363 116.967 54.1493C116.967 53.8571 116.87 53.3702 116.87 52.3963V49.7667L121.35 55.318H121.642V51.0328C121.642 50.0589 121.642 49.5719 121.739 49.2797C121.739 48.7928 122.031 48.6954 122.616 48.598V48.2084H122.713ZM113.851 53.2728C113.753 53.6623 113.558 54.0519 113.364 54.2467C113.169 54.5389 112.877 54.6363 112 54.6363C111.513 54.6363 111.124 54.6362 110.929 54.5389C110.734 54.4415 110.637 54.1493 110.637 53.6623V51.7145H111.611C112.487 51.7145 112.585 51.8119 112.779 52.4936H113.071V50.4484H112.779C112.682 51.1302 112.585 51.2276 111.611 51.2276H110.637V48.7928C110.637 48.5006 110.637 48.5006 111.026 48.5006H111.805C112.585 48.5006 112.877 48.598 112.974 48.7928C113.071 48.9876 113.169 49.2797 113.266 49.6693L113.558 49.5719C113.558 48.9876 113.461 48.3058 113.461 48.0136H108.786V48.5006C109.565 48.598 109.663 48.598 109.663 49.5719V53.7597C109.663 54.6363 109.565 54.7336 108.591 54.7336V55.0258H113.656C113.753 54.7336 113.948 53.6623 114.045 53.3702L113.851 53.2728ZM107.423 55.0258V54.7336C106.546 54.6363 106.449 54.6363 106.449 53.4676L106.351 49.6693C106.351 48.598 106.351 48.598 107.325 48.5006V48.2084H105.572L103.138 53.4676L100.703 48.2084H98.9497V48.5006C99.9236 48.598 99.9236 48.598 99.8263 50.0589L99.6315 52.2989C99.5341 53.3702 99.4367 53.8571 99.4367 54.2467C99.3393 54.7336 99.1445 54.831 98.5602 54.9284V55.2206H100.995V54.9284C100.313 54.831 100.021 54.7336 100.021 54.2467C100.021 53.8571 100.021 53.3702 100.021 52.4936L100.216 49.4745L102.553 55.1232H102.748L105.28 49.3771V53.6623C105.28 54.831 105.28 54.831 104.404 54.9284V55.2206H107.423V55.0258ZM93.9828 49.085C93.9828 48.7928 93.9828 48.6954 94.0802 48.598C94.1776 48.5006 94.3724 48.5006 94.6645 48.5006C95.541 48.5006 96.2228 48.9876 96.2228 50.1563C96.2228 51.5197 95.3463 51.9093 94.6645 51.9093C94.275 51.9093 93.9828 51.8119 93.8854 51.8119V49.085H93.9828ZM92.2297 48.2084V48.5006C93.0089 48.598 93.1063 48.598 93.1063 49.5719V53.7597C93.1063 54.6363 93.0089 54.7336 92.1324 54.831V55.1232H94.9567V54.831C93.9828 54.7336 93.8854 54.7336 93.8854 53.8571V52.2015L94.6645 52.3963C94.7619 52.3963 94.9567 52.3963 95.1515 52.3963C96.2228 52.2989 97.1967 51.6171 97.1967 50.2537C97.1967 49.5719 96.9045 49.085 96.515 48.7928C96.1254 48.5006 95.4437 48.3058 94.7619 48.3058H92.2297V48.2084ZM87.068 48.4032C88.4315 48.4032 89.6002 49.5719 89.6002 51.8119C89.6002 53.8571 88.5289 54.831 87.3602 54.831C85.8993 54.831 84.828 53.3702 84.828 51.4223C84.828 49.3771 85.8993 48.4032 87.068 48.4032ZM87.2628 48.0136C85.0228 48.0136 83.7567 49.7667 83.7567 51.7145C83.7567 53.7597 85.315 55.2206 87.1654 55.2206C89.1132 55.2206 90.6715 53.8571 90.6715 51.5197C90.6715 49.3771 89.1132 48.0136 87.2628 48.0136ZM82.1985 53.2728C82.0037 53.7597 81.8089 54.0519 81.6141 54.3441C81.3219 54.6363 81.0298 54.6363 80.4454 54.6363C79.9585 54.6363 79.6663 54.6362 79.4715 54.5389C79.2767 54.4415 79.2767 54.2467 79.2767 53.6623V49.4745C79.2767 48.598 79.3741 48.5006 80.2506 48.5006V48.2084H77.5237V48.5006C78.4002 48.598 78.4976 48.598 78.4976 49.4745V53.6623C78.4976 54.5389 78.4002 54.6363 77.5237 54.7336V55.0258H82.2958C82.3932 54.7336 82.588 53.6623 82.6854 53.3702L82.1985 53.2728ZM75.7706 53.2728C75.6732 53.6623 75.4785 54.0519 75.2837 54.2467C75.0889 54.5389 74.7967 54.6363 73.9202 54.6363C73.4332 54.6363 73.0437 54.6362 72.8489 54.5389C72.6541 54.4415 72.5567 54.1493 72.5567 53.6623V51.7145H73.5306C74.4072 51.7145 74.5045 51.8119 74.6993 52.4936H74.9915V50.4484H74.6993C74.6019 51.1302 74.5045 51.2276 73.5306 51.2276H72.5567V48.7928C72.5567 48.5006 72.5567 48.5006 72.9463 48.5006H73.7254C74.5045 48.5006 74.7967 48.598 74.8941 48.7928C74.9915 48.9876 75.0889 49.2797 75.1863 49.6693L75.4785 49.5719C75.4785 48.9876 75.3811 48.3058 75.3811 48.0136H70.7063V48.5006C71.4854 48.598 71.5828 48.598 71.5828 49.5719V53.7597C71.5828 54.6363 71.4854 54.7336 70.5115 54.7336V55.0258H75.5758C75.6732 54.7336 75.868 53.6623 75.9654 53.3702L75.7706 53.2728ZM69.4402 48.2084H67.1028V48.5006C67.9793 48.598 67.9793 48.6954 67.7845 49.2797C67.4924 50.351 66.6159 52.3963 66.1289 53.7597C65.4472 51.9093 64.668 49.8641 64.3759 49.1823C64.1811 48.6954 64.2785 48.598 64.9602 48.598V48.3058H62.3306V48.5006C62.915 48.598 63.1098 48.598 63.4019 49.4745C63.9863 51.0328 64.8628 53.2728 65.5446 55.2206H65.8367C66.6159 53.078 67.7846 50.351 68.0767 49.6693C68.4663 48.6954 68.6611 48.598 69.3428 48.5006V48.2084H69.4402ZM61.0646 53.2728C60.9672 53.6623 60.7724 54.0519 60.5776 54.2467C60.3828 54.5389 60.0906 54.6363 59.2141 54.6363C58.7272 54.6363 58.3376 54.6362 58.1428 54.5389C57.948 54.4415 57.8506 54.1493 57.8506 53.6623V51.7145H58.8246C59.7011 51.7145 59.7985 51.8119 59.9933 52.4936H60.2854V50.4484H59.9933C59.8959 51.1302 59.7985 51.2276 58.8246 51.2276H57.8506V48.7928C57.8506 48.5006 57.8507 48.5006 58.2402 48.5006H59.0193C59.7985 48.5006 60.0906 48.598 60.188 48.7928C60.2854 48.9876 60.3828 49.2797 60.4802 49.6693L60.7724 49.5719C60.7724 48.9876 60.675 48.3058 60.675 48.0136H56.0002V48.5006C56.7793 48.598 56.8767 48.598 56.8767 49.5719V53.7597C56.8767 54.6363 56.7793 54.7336 55.8054 54.7336V55.0258H60.8698C60.9672 54.7336 61.162 53.6623 61.2593 53.3702L61.0646 53.2728ZM49.5724 49.2797C49.5724 48.8902 49.5724 48.7928 49.6698 48.6954C49.7672 48.598 50.0594 48.598 50.4489 48.598C51.1307 48.598 51.8124 48.6954 52.202 48.9876C53.0785 49.4745 53.468 50.4484 53.468 51.5197C53.468 53.1754 52.5915 54.7336 50.5463 54.7336C49.7672 54.7336 49.3776 54.5389 49.3776 53.7597V49.2797H49.5724ZM47.722 48.2084V48.5006C48.5011 48.598 48.5985 48.598 48.5985 49.4745V53.6623C48.5985 54.5389 48.5011 54.6363 47.6246 54.7336V55.0258H50.1567C51.4228 55.0258 52.4941 54.7336 53.2733 54.1493C54.0524 53.565 54.5393 52.591 54.5393 51.325C54.5393 50.351 54.1498 49.5719 53.6628 49.085C52.9811 48.5006 52.0072 48.2084 50.6437 48.2084H47.722Z" fill="#895A40"/>
<path d="M165.371 41.586C165.176 42.073 164.981 42.3652 164.786 42.6573C164.592 42.9495 164.202 42.9495 163.618 42.9495C163.131 42.9495 162.839 42.9495 162.644 42.8521C162.449 42.7547 162.449 42.5599 162.449 41.9756V37.7878C162.449 36.9113 162.546 36.8139 163.423 36.8139V36.5217H160.696V36.8139C161.572 36.9113 161.67 36.9113 161.67 37.7878V41.9756C161.67 42.8521 161.572 42.9495 160.696 43.0469V43.3391H165.468C165.566 43.0469 165.76 41.9756 165.858 41.6834L165.371 41.586ZM140.828 40.4173H138.88C139.173 39.5408 139.562 38.6643 139.854 37.6904L140.828 40.4173ZM143.458 43.3391V43.0469C142.776 42.9495 142.679 42.8521 142.289 41.9756C141.607 40.1252 140.926 38.1773 140.244 36.3269L139.952 36.4243L137.809 41.9756C137.419 42.9495 137.322 42.9495 136.64 43.0469V43.3391H138.978V43.0469C138.199 42.9495 138.101 42.8521 138.296 42.1704C138.393 41.6834 138.588 41.2939 138.783 40.8069H141.023C141.218 41.4886 141.51 41.9756 141.607 42.4625C141.705 42.8521 141.607 42.9495 141.023 43.0469V43.3391H143.458ZM119.889 43.3391V43.0469C119.013 42.9495 118.915 42.9495 118.915 41.9756V37.7878C118.915 36.9113 119.013 36.8139 119.889 36.7165V36.4243H117.065V36.8139C117.941 36.9113 118.039 36.9113 118.039 37.8852V42.073C118.039 42.9495 117.941 43.0469 117.065 43.1443V43.4365H119.889V43.3391ZM99.7291 41.4886C99.2421 42.5599 98.6578 43.1443 97.5865 43.1443C96.0282 43.1443 94.8595 41.7808 94.8595 39.833C94.8595 38.2747 95.8334 36.7165 97.5865 36.7165C98.7552 36.7165 99.3395 37.2034 99.6317 38.2747L99.9239 38.1773C99.8265 37.593 99.8265 37.2034 99.7291 36.6191C99.4369 36.5217 98.7552 36.3269 97.8786 36.3269C95.5412 36.3269 93.7882 37.7878 93.7882 40.0278C93.7882 41.6834 94.9569 43.5339 97.5865 43.5339C98.3656 43.5339 99.2421 43.3391 99.5343 43.2417C99.7291 42.8521 100.021 42.073 100.119 41.586L99.7291 41.4886ZM72.5569 36.7165C73.9204 36.7165 75.0891 37.8852 75.0891 40.1252C75.0891 42.1704 74.0178 43.1443 72.8491 43.1443C71.3882 43.1443 70.3169 41.6834 70.3169 39.7356C70.3169 37.6904 71.3882 36.7165 72.5569 36.7165ZM72.7517 36.3269C70.5117 36.3269 69.2456 38.0799 69.2456 40.0278C69.2456 42.073 70.8039 43.5339 72.6543 43.5339C74.6021 43.5339 76.1604 42.1704 76.1604 39.833C76.1604 37.6904 74.6021 36.3269 72.7517 36.3269ZM51.6178 37.9826C51.5204 37.3008 51.5204 36.9113 51.423 36.5217C51.0335 36.4243 50.5465 36.3269 50.0596 36.3269C48.6961 36.3269 47.917 37.2034 47.917 38.1773C47.917 39.346 48.9883 39.9304 49.67 40.2226C50.4491 40.6121 51.0335 41.0017 51.0335 41.7808C51.0335 42.5599 50.5465 43.0469 49.7674 43.0469C48.6961 43.0469 48.2091 41.9756 48.0143 41.2939L47.7222 41.3912C47.8196 41.8782 47.917 42.8521 48.0143 43.0469C48.1117 43.1443 48.3065 43.1443 48.5013 43.2417C48.7935 43.3391 49.0856 43.4365 49.5726 43.4365C50.9361 43.4365 51.91 42.5599 51.91 41.4886C51.91 40.3199 50.9361 39.833 50.0596 39.346C49.183 38.9565 48.6961 38.5669 48.6961 37.7878C48.6961 37.2034 49.0856 36.6191 49.8648 36.6191C50.7413 36.6191 51.0335 37.3008 51.2282 37.9826H51.6178Z" fill="#895A40"/>
</svg>
