<svg width="17" height="17" viewBox="0 0 17 17" fill="none" xmlns="http://www.w3.org/2000/svg">
<path d="M17 8.5C17 13.1941 13.1941 17 8.5 17C3.80588 17 0 13.1941 0 8.5C0 3.80587 3.80588 0 8.5 0C13.1941 0 17 3.80587 17 8.5Z" fill="#FEFCFC"/>
<path opacity="0.05" d="M11.9729 5.17326L7.6498 9.49636L5.4517 7.29826C5.11977 6.96634 4.58172 6.96634 4.2498 7.29826L3.64885 7.89921C3.31692 8.23114 3.31692 8.76919 3.64885 9.10111L7.04885 12.5011C7.38077 12.833 7.91882 12.833 8.25075 12.5011L13.7757 6.97611C14.1077 6.64419 14.1077 6.10614 13.7757 5.77421L13.1748 5.17326C12.8429 4.84134 12.3048 4.84134 11.9729 5.17326Z" fill="black"/>
<path opacity="0.07" d="M7.19909 12.3509L3.79909 8.95088C3.55004 8.70183 3.55004 8.29808 3.79909 8.04946L4.40004 7.44851C4.64909 7.19946 5.05284 7.19946 5.30147 7.44851L7.65002 9.79663L12.1231 5.32351C12.3722 5.07446 12.7759 5.07446 13.0246 5.32351L13.6255 5.92446C13.8746 6.17351 13.8746 6.57726 13.6255 6.82588L8.10052 12.3509C7.85189 12.5995 7.44814 12.5995 7.19909 12.3509Z" fill="white"/>
<path d="M7.34983 12.2007L3.94983 8.80065C3.78365 8.63448 3.78365 8.36545 3.94983 8.1997L4.55078 7.59875C4.71695 7.43258 4.98598 7.43258 5.15173 7.59875L7.6503 10.0973L12.2739 5.47375C12.4401 5.30758 12.7091 5.30758 12.8748 5.47375L13.4758 6.0747C13.642 6.24088 13.642 6.5099 13.4758 6.67565L7.95078 12.2007C7.78503 12.3668 7.51558 12.3668 7.34983 12.2007Z" fill="#209898"/>
</svg>
