<svg width="33" height="34" viewBox="0 0 33 34" fill="none" xmlns="http://www.w3.org/2000/svg">
<path d="M9.11917 13.8861C8.79854 13.8908 8.59306 13.9228 8.47168 13.9542V18.2053C8.59278 18.2364 8.78979 18.2399 8.9678 18.2435C10.2787 18.2784 11.1492 17.5471 11.1492 15.962C11.1586 14.5835 10.3662 13.8671 9.11917 13.8861Z" fill="#1565C0"/>
<path d="M20.1292 30.1713C20.1724 30.1736 20.2161 30.1775 20.2605 30.1775H30.2513C31.4197 30.1775 32.3706 29.226 32.3706 28.0567V4.88065C32.3706 3.71157 31.4197 2.75995 30.2513 2.75995H20.2605C20.2164 2.75995 20.1724 2.76427 20.1292 2.76629V0L0.628906 2.60415V30.3508L20.1292 33.0224V30.1713ZM30.2513 28.9662H20.2605C20.2158 28.9662 20.1724 28.9591 20.1292 28.9526V19.8594C22.2109 19.4994 25.1018 19.2269 27.6022 19.8147L27.8981 20.389C29.0917 22.6473 30.3666 22.6325 30.8591 22.5212C30.9721 22.4958 31.033 22.4674 31.033 22.4674L31.0992 22.4322C31.1217 22.418 31.1392 22.3999 31.1595 22.3846V28.0573C31.1595 28.5582 30.7521 28.9662 30.2513 28.9662ZM20.9766 18.7816C22.5411 16.8722 23.8054 15.0896 24.6196 13.8824L24.6226 13.8891L24.6314 13.8754C25.2706 15.2239 26.3244 17.3097 27.0499 18.7334L27.0476 18.7328L27.0724 18.7805C25.0093 18.4278 22.794 18.5565 20.9718 18.8086L20.9985 18.7775L20.9766 18.7816ZM24.6569 9.87183C24.7196 9.7612 24.8112 9.73191 24.9756 9.73915C24.9786 9.73943 25.305 9.76086 25.4268 9.9846C25.5007 10.1178 25.6078 10.5405 25.0318 11.5711H25.0312C25.0312 11.5711 24.9567 11.6951 24.8166 11.9189C24.4937 10.7843 24.515 10.1218 24.6569 9.87183ZM28.8233 20.1867C29.4152 20.4145 29.9468 20.6952 30.4121 21.0271C30.5458 21.2171 30.6693 21.4905 30.6469 21.6195C30.6457 21.6257 30.6446 21.6319 30.641 21.6381C30.45 21.6733 29.6901 21.697 28.8233 20.1867ZM20.2605 3.972H30.2513C30.7521 3.972 31.1595 4.37988 31.1595 4.88088V20.5121C31.1311 20.4715 31.1066 20.4381 31.0921 20.42L31.0537 20.3703L31.0034 20.333C30.2282 19.7667 29.2939 19.3304 28.2237 19.0354C27.4606 17.5443 25.8803 14.4364 25.216 12.981C25.6006 12.3881 25.8073 12.0425 25.8168 12.0266C26.4161 10.9575 26.547 10.123 26.2156 9.5342C25.9152 9.00133 25.3168 8.84127 25.0111 8.83112C24.5168 8.80862 24.0952 9.02018 23.8663 9.42312C23.5174 10.0383 23.5896 11.116 24.0827 12.6242C24.1047 12.6938 24.1398 12.7831 24.1862 12.8956C23.3962 14.0913 21.9629 16.1593 20.129 18.3806V3.98536C20.1724 3.97896 20.2155 3.972 20.2605 3.972ZM5.6237 16.3237C5.16262 16.7814 4.48485 16.9811 3.70251 16.974C3.53045 16.9722 3.37493 16.9616 3.25478 16.942V19.1692L1.97414 19.1337V13.0529C2.36973 12.9705 2.92954 12.9021 3.72853 12.8827C4.54495 12.8627 5.13627 13.0174 5.53501 13.347C5.9195 13.66 6.17892 14.1862 6.17892 14.8106C6.17892 15.4356 5.98157 15.9655 5.6237 16.3237ZM11.636 18.6103C10.9443 19.1751 9.90468 19.4212 8.657 19.3863C7.92198 19.3653 7.40635 19.3035 7.0588 19.2461V12.9354C7.57191 12.8376 8.24671 12.7733 8.96698 12.7558C10.1823 12.726 10.9828 12.933 11.6172 13.4031C12.3061 13.9069 12.7433 14.7271 12.7433 15.9134C12.7433 17.1994 12.2767 18.0783 11.636 18.6103ZM13.7497 12.6902L18.0579 12.5873V13.8836L15.3176 13.9234V15.4882L17.8757 15.4818V16.7657L15.3176 16.748V19.5024L13.7492 19.4592V12.6903H13.7497V12.6902Z" fill="#1565C0"/>
<path d="M3.79776 13.948C3.53033 13.9521 3.34969 13.9824 3.25488 14.0119V15.8508C3.36589 15.8788 3.5037 15.8881 3.6941 15.8881C4.39778 15.8887 4.83576 15.5045 4.83576 14.859C4.83581 14.2781 4.45872 13.9373 3.79776 13.948Z" fill="#1565C0"/>
</svg>
