<svg width="33" height="33" viewBox="0 0 33 33" fill="none" xmlns="http://www.w3.org/2000/svg">
<g clip-path="url(#clip0)">
<path d="M18.9915 0.839478C18.8284 0.706962 18.6136 0.656302 18.4086 0.701999L0.533574 4.827C0.218978 4.89932 -0.00299867 5.18072 3.06285e-05 5.5035V28.8785C0.000159535 29.2177 0.247724 29.5062 0.583009 29.5578L18.458 32.3078C18.8333 32.3655 19.1843 32.1081 19.242 31.7328C19.2473 31.6983 19.25 31.6635 19.25 31.6286V1.3785C19.2506 1.16883 19.1554 0.970382 18.9915 0.839478Z" fill="#1565C0"/>
<path d="M32.3126 29.5654H18.5625C18.1828 29.5654 17.875 29.2576 17.875 28.8779C17.875 28.4982 18.1828 28.1904 18.5625 28.1904H31.625V4.81541H18.5625C18.1828 4.81541 17.875 4.50758 17.875 4.12789C17.875 3.74819 18.1828 3.44043 18.5625 3.44043H32.3125C32.6922 3.44043 33 3.74826 33 4.12795V28.8779C33 29.2576 32.6923 29.5654 32.3126 29.5654Z" fill="#1565C0"/>
<path d="M11.6881 22.6897C11.3817 22.6894 11.1127 22.4864 11.0281 22.192L8.93807 14.8797L6.84805 22.192C6.6971 22.5568 6.27893 22.7303 5.914 22.5793C5.73855 22.5067 5.59921 22.3674 5.52663 22.192L2.77668 12.567C2.66156 12.2051 2.86163 11.8185 3.22347 11.7034C3.5853 11.5883 3.97189 11.7884 4.08701 12.1502C4.09107 12.163 4.09474 12.1759 4.09809 12.1888L6.18805 19.4997L8.27807 12.1875C8.42902 11.8226 8.84719 11.6492 9.21213 11.8001C9.38757 11.8727 9.52692 12.012 9.59949 12.1875L11.6881 19.4997L13.7781 12.1889C13.8771 11.8271 14.2506 11.6139 14.6125 11.7128C14.6176 11.7143 14.6227 11.7157 14.6279 11.7172C14.9927 11.8218 15.2038 12.2021 15.0995 12.567L12.3494 22.192C12.2648 22.4869 11.9949 22.69 11.6881 22.6897Z" fill="#FAFAFA"/>
<path d="M29.5635 8.93949H18.5635C18.1838 8.93949 17.876 8.63166 17.876 8.25197C17.876 7.87228 18.1838 7.56445 18.5635 7.56445H29.5635C29.9432 7.56445 30.251 7.87228 30.251 8.25197C30.251 8.63173 29.9432 8.93949 29.5635 8.93949Z" fill="#1565C0"/>
<path d="M29.5635 13.0645H18.5635C18.1838 13.0645 17.876 12.7567 17.876 12.377C17.876 11.9973 18.1838 11.6895 18.5635 11.6895H29.5635C29.9432 11.6895 30.251 11.9973 30.251 12.377C30.251 12.7567 29.9432 13.0645 29.5635 13.0645Z" fill="#1565C0"/>
<path d="M29.5635 17.1895H18.5635C18.1838 17.1895 17.876 16.8817 17.876 16.502C17.876 16.1223 18.1838 15.8145 18.5635 15.8145H29.5635C29.9432 15.8145 30.251 16.1223 30.251 16.502C30.251 16.8817 29.9432 17.1895 29.5635 17.1895Z" fill="#1565C0"/>
<path d="M29.5635 21.3145H18.5635C18.1838 21.3145 17.876 21.0067 17.876 20.627C17.876 20.2473 18.1838 19.9395 18.5635 19.9395H29.5635C29.9432 19.9395 30.251 20.2473 30.251 20.627C30.251 21.0067 29.9432 21.3145 29.5635 21.3145Z" fill="#1565C0"/>
<path d="M29.5635 25.4395H18.5635C18.1838 25.4395 17.876 25.1317 17.876 24.752C17.876 24.3723 18.1838 24.0645 18.5635 24.0645H29.5635C29.9432 24.0645 30.251 24.3723 30.251 24.752C30.251 25.1317 29.9432 25.4395 29.5635 25.4395Z" fill="#1565C0"/>
</g>
<defs>
<clipPath id="clip0">
<rect width="33" height="33" fill="white"/>
</clipPath>
</defs>
</svg>
